<?xml version="1.0" encoding="UTF-8"?>
<svg xmlns="http://www.w3.org/2000/svg" xmlns:xlink="http://www.w3.org/1999/xlink" width="500pt" height="500pt" viewBox="0 0 500 500" version="1.1">
<g id="surface1">
<path style=" stroke:none;fill-rule:nonzero;fill:#F1BC19;fill-opacity:1;" d="M 395 70 C 395 72.761719 392.761719 75 390 75 C 387.238281 75 385 72.761719 385 70 C 385 67.238281 387.238281 65 390 65 C 392.761719 65 395 67.238281 395 70 Z "/>
<path style=" stroke:none;fill-rule:nonzero;fill:#F9DBD2;fill-opacity:1;" d="M 440 250 C 440 354.933594 354.933594 440 250 440 C 145.066406 440 60 354.933594 60 250 C 60 145.066406 145.066406 60 250 60 C 354.933594 60 440 145.066406 440 250 Z "/>
<path style=" stroke:none;fill-rule:nonzero;fill:#F1BC19;fill-opacity:1;" d="M 440 80 C 440 91.046875 431.046875 100 420 100 C 408.953125 100 400 91.046875 400 80 C 400 68.953125 408.953125 60 420 60 C 431.046875 60 440 68.953125 440 80 Z "/>
<path style=" stroke:none;fill-rule:nonzero;fill:#EE3E54;fill-opacity:1;" d="M 80 130 C 80 135.523438 75.523438 140 70 140 C 64.476563 140 60 135.523438 60 130 C 60 124.476563 64.476563 120 70 120 C 75.523438 120 80 124.476563 80 130 Z "/>
<path style=" stroke:none;fill-rule:nonzero;fill:#FBCD59;fill-opacity:1;" d="M 400 385 C 400 390.523438 395.523438 395 390 395 C 384.476563 395 380 390.523438 380 385 C 380 379.476563 384.476563 375 390 375 C 395.523438 375 400 379.476563 400 385 Z "/>
<path style=" stroke:none;fill-rule:nonzero;fill:#FBCD59;fill-opacity:1;" d="M 105 390 C 105 401.046875 96.046875 410 85 410 C 73.953125 410 65 401.046875 65 390 C 65 378.953125 73.953125 370 85 370 C 96.046875 370 105 378.953125 105 390 Z "/>
<path style=" stroke:none;fill-rule:nonzero;fill:#EE3E54;fill-opacity:1;" d="M 130 415 C 130 420.523438 125.523438 425 120 425 C 114.476563 425 110 420.523438 110 415 C 110 409.476563 114.476563 405 120 405 C 125.523438 405 130 409.476563 130 415 Z "/>
<path style=" stroke:none;fill-rule:nonzero;fill:#FFFFFF;fill-opacity:1;" d="M 344.828125 392.585938 C 344.828125 399.441406 339.273438 405 332.414063 405 C 325.558594 405 320 399.441406 320 392.585938 C 320 385.726563 325.558594 380.171875 332.414063 380.171875 C 339.273438 380.171875 344.828125 385.726563 344.828125 392.585938 Z "/>
<path style=" stroke:none;fill-rule:nonzero;fill:#FFFFFF;fill-opacity:1;" d="M 85 240 C 85 242.761719 82.761719 245 80 245 C 77.238281 245 75 242.761719 75 240 C 75 237.238281 77.238281 235 80 235 C 82.761719 235 85 237.238281 85 240 Z "/>
<path style=" stroke:none;fill-rule:nonzero;fill:#F1BC19;fill-opacity:1;" d="M 435 155 C 435 157.761719 432.761719 160 430 160 C 427.238281 160 425 157.761719 425 155 C 425 152.238281 427.238281 150 430 150 C 432.761719 150 435 152.238281 435 155 Z "/>
<path style=" stroke:none;fill-rule:nonzero;fill:#FFFFFF;fill-opacity:1;" d="M 410 330 C 410 335.523438 405.523438 340 400 340 C 394.476563 340 390 335.523438 390 330 C 390 324.476563 394.476563 320 400 320 C 405.523438 320 410 324.476563 410 330 Z "/>
<path style=" stroke:none;fill-rule:nonzero;fill:#EDDC67;fill-opacity:1;" d="M 244.078125 226.125 C 244.078125 226.125 211.5 285.859375 130.046875 296.71875 C 151.765625 313.011719 265.804688 394.464844 265.804688 394.464844 C 265.804688 394.464844 336.398438 332.015625 347.261719 295.359375 C 320.105469 269.566406 244.078125 226.125 244.078125 226.125 Z "/>
<path style=" stroke:none;fill-rule:nonzero;fill:#472B29;fill-opacity:1;" d="M 265.800781 397.96875 C 265.089844 397.96875 264.375 397.753906 263.765625 397.316406 C 262.625 396.5 149.445313 315.648438 127.941406 299.515625 C 126.800781 298.664063 126.296875 297.203125 126.65625 295.835938 C 127.015625 294.460938 128.171875 293.441406 129.578125 293.246094 C 208.359375 282.738281 240.691406 225.023438 241.003906 224.445313 C 241.453125 223.621094 242.21875 223.011719 243.125 222.75 C 244.023438 222.5 245 222.613281 245.816406 223.078125 C 248.933594 224.859375 322.519531 267.023438 349.664063 292.816406 C 350.621094 293.726563 350.984375 295.085938 350.609375 296.351563 C 339.589844 333.539063 271.03125 394.503906 268.113281 397.078125 C 267.460938 397.671875 266.636719 397.96875 265.800781 397.96875 Z M 138.855469 298.878906 C 168.03125 320.269531 250.703125 379.378906 265.546875 389.984375 C 276.964844 379.613281 332.078125 328.40625 343.238281 296.40625 C 318.640625 273.976563 259.273438 238.988281 245.308594 230.878906 C 237.609375 243.058594 205.695313 286.890625 138.855469 298.878906 Z "/>
<path style=" stroke:none;fill-rule:nonzero;fill:#EBA272;fill-opacity:1;" d="M 189.585938 335.210938 C 189.585938 335.210938 222.464844 313.339844 233.324219 291.613281 C 211.605469 307.90625 199.386719 317.410156 172.910156 323.519531 "/>
<path style=" stroke:none;fill-rule:nonzero;fill:#EBA272;fill-opacity:1;" d="M 234.828125 368.496094 C 234.828125 368.496094 252.921875 356.433594 258.949219 344.375 C 246.25 351.875 233.125 355.941406 219.058594 357.5 "/>
<path style=" stroke:none;fill-rule:nonzero;fill:#472B29;fill-opacity:1;" d="M 219.058594 358.75 C 218.433594 358.75 217.890625 358.273438 217.820313 357.636719 C 217.746094 356.949219 218.234375 356.328125 218.925781 356.261719 C 222.5 355.859375 226.023438 355.296875 229.398438 354.578125 C 230.070313 354.441406 230.738281 354.863281 230.878906 355.539063 C 231.023438 356.214844 230.589844 356.878906 229.914063 357.019531 C 226.464844 357.75 222.855469 358.335938 219.199219 358.738281 C 219.15625 358.746094 219.105469 358.75 219.058594 358.75 Z "/>
<path style=" stroke:none;fill-rule:nonzero;fill:#472B29;fill-opacity:1;" d="M 234.828125 369.746094 C 234.425781 369.746094 234.03125 369.550781 233.789063 369.191406 C 233.40625 368.613281 233.566406 367.835938 234.136719 367.453125 C 234.296875 367.351563 248.214844 357.988281 255.425781 347.773438 C 249.449219 350.945313 243.339844 353.410156 236.863281 355.28125 C 236.203125 355.453125 235.511719 355.089844 235.316406 354.425781 C 235.121094 353.761719 235.503906 353.070313 236.171875 352.875 C 243.945313 350.628906 251.191406 347.496094 258.308594 343.296875 C 258.789063 343.011719 259.394531 343.070313 259.796875 343.453125 C 260.199219 343.828125 260.308594 344.429688 260.058594 344.925781 C 253.949219 357.144531 236.265625 369.03125 235.515625 369.53125 C 235.316406 369.679688 235.070313 369.746094 234.828125 369.746094 Z "/>
<path style=" stroke:none;fill-rule:nonzero;fill:#472B29;fill-opacity:1;" d="M 334.136719 320.941406 C 334.015625 320.941406 333.890625 320.929688 333.769531 320.914063 C 318.714844 318.699219 311.085938 314.339844 304.351563 303.871094 C 293.273438 304.476563 283.394531 300.578125 276.378906 292.824219 C 275.304688 291.636719 274.296875 290.351563 273.386719 289.011719 C 272.609375 287.863281 272.90625 286.308594 274.050781 285.535156 C 275.195313 284.773438 276.75 285.058594 277.519531 286.199219 C 278.304688 287.359375 279.164063 288.449219 280.089844 289.476563 C 286.34375 296.394531 295.359375 299.734375 305.441406 298.773438 C 306.390625 298.703125 307.308594 299.144531 307.804688 299.964844 C 313.910156 310 320.394531 313.886719 334.496094 315.960938 C 335.859375 316.164063 336.804688 317.433594 336.605469 318.800781 C 336.421875 320.050781 335.355469 320.941406 334.136719 320.941406 Z "/>
<path style=" stroke:none;fill-rule:nonzero;fill:#472B29;fill-opacity:1;" d="M 275.453125 290.105469 C 274.65625 290.105469 273.871094 289.726563 273.386719 289.011719 C 272.738281 288.058594 272.136719 287.066406 271.570313 286.039063 C 265.441406 285.566406 259.15625 284.585938 253.894531 281.398438 C 252.714844 280.683594 252.335938 279.148438 253.050781 277.964844 C 253.761719 276.785156 255.289063 276.398438 256.484375 277.121094 C 260.324219 279.441406 265.195313 280.605469 273.304688 281.148438 C 274.191406 281.210938 274.976563 281.730469 275.375 282.519531 C 276.019531 283.804688 276.734375 285.035156 277.523438 286.191406 C 278.300781 287.335938 278.003906 288.886719 276.863281 289.660156 C 276.429688 289.964844 275.941406 290.105469 275.453125 290.105469 Z "/>
<path style=" stroke:none;fill-rule:nonzero;fill:#472B29;fill-opacity:1;" d="M 248.234375 275.070313 C 247.441406 275.070313 246.65625 274.691406 246.171875 273.984375 C 245.195313 272.558594 244.300781 271.011719 243.453125 269.28125 C 226.605469 267.226563 220.105469 254.140625 219.824219 253.566406 C 219.226563 252.324219 219.746094 250.835938 220.980469 250.234375 C 222.226563 249.644531 223.714844 250.148438 224.320313 251.378906 C 224.554688 251.863281 230.308594 263.226563 245.316406 264.441406 C 246.226563 264.515625 247.019531 265.074219 247.394531 265.90625 C 248.296875 267.910156 249.238281 269.625 250.285156 271.148438 C 251.066406 272.289063 250.78125 273.84375 249.640625 274.625 C 249.214844 274.925781 248.726563 275.070313 248.234375 275.070313 Z "/>
<path style=" stroke:none;fill-rule:nonzero;fill:#B3B2C3;fill-opacity:1;" d="M 166.5 182.5 C 166.5 192.992188 157.992188 201.5 147.5 201.5 C 137.007813 201.5 128.5 192.992188 128.5 182.5 C 128.5 172.007813 137.007813 163.5 147.5 163.5 C 157.992188 163.5 166.5 172.007813 166.5 182.5 Z "/>
<path style=" stroke:none;fill-rule:nonzero;fill:#472B29;fill-opacity:1;" d="M 147.5 167 C 156.046875 167 163 173.953125 163 182.5 C 163 191.046875 156.046875 198 147.5 198 C 138.953125 198 132 191.046875 132 182.5 C 132 173.953125 138.953125 167 147.5 167 M 147.5 160 C 135.074219 160 125 170.074219 125 182.5 C 125 194.925781 135.074219 205 147.5 205 C 159.925781 205 170 194.925781 170 182.5 C 170 170.074219 159.925781 160 147.5 160 Z "/>
<path style=" stroke:none;fill-rule:nonzero;fill:#B3B2C3;fill-opacity:1;" d="M 191.5 230 C 191.5 236.351563 186.351563 241.5 180 241.5 C 173.648438 241.5 168.5 236.351563 168.5 230 C 168.5 223.648438 173.648438 218.5 180 218.5 C 186.351563 218.5 191.5 223.648438 191.5 230 Z "/>
<path style=" stroke:none;fill-rule:nonzero;fill:#472B29;fill-opacity:1;" d="M 180 222 C 184.410156 222 188 225.589844 188 230 C 188 234.410156 184.410156 238 180 238 C 175.589844 238 172 234.410156 172 230 C 172 225.589844 175.589844 222 180 222 M 180 215 C 171.714844 215 165 221.714844 165 230 C 165 238.285156 171.714844 245 180 245 C 188.285156 245 195 238.285156 195 230 C 195 221.714844 188.285156 215 180 215 Z "/>
<path style=" stroke:none;fill-rule:nonzero;fill:#39C2D8;fill-opacity:1;" d="M 348.113281 259.976563 L 324.726563 245.226563 L 375.65625 155.914063 C 379.175781 150.335938 377.503906 142.960938 371.925781 139.441406 C 366.34375 135.921875 358.96875 137.589844 355.449219 143.171875 L 296.800781 227.609375 L 273.410156 212.859375 C 263.910156 206.871094 251.355469 209.710938 245.363281 219.210938 L 238.371094 230.300781 L 347.46875 299.105469 L 354.464844 288.015625 C 360.460938 278.515625 357.613281 265.964844 348.113281 259.976563 Z "/>
<path style=" stroke:none;fill-rule:nonzero;fill:#472B29;fill-opacity:1;" d="M 347.476563 302.605469 C 346.835938 302.605469 346.191406 302.429688 345.609375 302.066406 L 236.511719 233.261719 C 235.726563 232.765625 235.171875 231.980469 234.964844 231.070313 C 234.761719 230.164063 234.925781 229.214844 235.414063 228.433594 L 242.410156 217.34375 C 245.804688 211.960938 251.09375 208.21875 257.304688 206.816406 C 263.511719 205.410156 269.898438 206.503906 275.28125 209.90625 L 295.835938 222.863281 L 352.578125 141.175781 C 357.03125 134.109375 366.59375 131.941406 373.789063 136.484375 C 380.988281 141.023438 383.15625 150.578125 378.613281 157.785156 L 329.425781 244.050781 L 349.980469 257.019531 C 361.089844 264.023438 364.433594 278.78125 357.425781 289.890625 L 350.429688 300.980469 C 349.769531 302.023438 348.636719 302.605469 347.476563 302.605469 Z M 243.203125 229.203125 L 346.386719 294.273438 L 351.515625 286.148438 C 356.460938 278.304688 354.105469 267.886719 346.253906 262.929688 L 322.863281 248.179688 C 321.28125 247.183594 320.765625 245.113281 321.695313 243.488281 L 372.625 154.183594 C 375.183594 150.113281 374 144.890625 370.066406 142.40625 C 366.125 139.921875 360.90625 141.113281 358.421875 145.039063 L 299.675781 229.605469 C 298.609375 231.144531 296.519531 231.566406 294.933594 230.566406 L 271.546875 215.820313 C 267.746094 213.425781 263.230469 212.640625 258.851563 213.640625 C 254.464844 214.628906 250.730469 217.273438 248.328125 221.070313 Z "/>
<path style=" stroke:none;fill-rule:nonzero;fill:#472B29;fill-opacity:1;" d="M 172.910156 324.769531 C 172.339844 324.769531 171.824219 324.378906 171.691406 323.804688 C 171.535156 323.128906 171.953125 322.460938 172.625 322.304688 C 176.238281 321.464844 179.484375 320.59375 182.550781 319.648438 C 183.203125 319.476563 183.910156 319.824219 184.113281 320.476563 C 184.320313 321.140625 183.949219 321.835938 183.289063 322.039063 C 180.164063 323 176.863281 323.886719 173.195313 324.734375 C 173.101563 324.761719 173.003906 324.769531 172.910156 324.769531 Z "/>
<path style=" stroke:none;fill-rule:nonzero;fill:#472B29;fill-opacity:1;" d="M 188.660156 320.171875 C 188.148438 320.171875 187.671875 319.855469 187.484375 319.351563 C 187.25 318.699219 187.585938 317.984375 188.230469 317.746094 C 191.476563 316.566406 194.523438 315.285156 197.558594 313.824219 C 198.183594 313.546875 198.925781 313.785156 199.230469 314.410156 C 199.53125 315.035156 199.265625 315.78125 198.644531 316.078125 C 195.535156 317.570313 192.410156 318.890625 189.085938 320.101563 C 188.945313 320.144531 188.800781 320.171875 188.660156 320.171875 Z "/>
<path style=" stroke:none;fill-rule:nonzero;fill:#472B29;fill-opacity:1;" d="M 210.265625 320.296875 C 209.921875 320.296875 209.578125 320.15625 209.328125 319.875 C 208.871094 319.355469 208.914063 318.570313 209.433594 318.109375 C 218.171875 310.34375 224.785156 303.023438 229.183594 296.28125 C 220.511719 302.769531 213.285156 308.039063 205.558594 312.441406 C 204.964844 312.78125 204.195313 312.574219 203.855469 311.976563 C 203.515625 311.375 203.726563 310.613281 204.320313 310.269531 C 212.878906 305.378906 220.890625 299.371094 231.035156 291.765625 L 232.570313 290.613281 C 233.035156 290.273438 233.675781 290.296875 234.121094 290.65625 C 234.566406 291.03125 234.695313 291.65625 234.433594 292.179688 C 230.226563 300.601563 222.363281 309.953125 211.089844 319.980469 C 210.859375 320.191406 210.558594 320.296875 210.265625 320.296875 Z "/>
<path style=" stroke:none;fill-rule:nonzero;fill:#472B29;fill-opacity:1;" d="M 189.585938 336.460938 C 189.179688 336.460938 188.785156 336.265625 188.546875 335.90625 C 188.160156 335.328125 188.320313 334.550781 188.890625 334.171875 C 188.945313 334.136719 194.179688 330.640625 201.050781 325.160156 C 201.585938 324.730469 202.375 324.824219 202.804688 325.355469 C 203.234375 325.894531 203.144531 326.683594 202.605469 327.113281 C 195.644531 332.664063 190.324219 336.214844 190.273438 336.25 C 190.058594 336.390625 189.820313 336.460938 189.585938 336.460938 Z "/>
<path style=" stroke:none;fill-rule:nonzero;fill:#472B29;fill-opacity:1;" d="M 278.539063 235 C 278.304688 235 278.070313 234.933594 277.859375 234.800781 L 261.398438 224.175781 C 260.820313 223.800781 260.65625 223.03125 261.03125 222.445313 C 261.40625 221.859375 262.179688 221.699219 262.761719 222.074219 L 279.21875 232.699219 C 279.800781 233.074219 279.964844 233.84375 279.589844 234.429688 C 279.355469 234.800781 278.953125 235 278.539063 235 Z "/>
<path style=" stroke:none;fill-rule:nonzero;fill:#472B29;fill-opacity:1;" d="M 343.539063 276.25 C 343.308594 276.25 343.074219 276.183594 342.863281 276.054688 L 296.613281 246.46875 C 296.035156 246.09375 295.863281 245.324219 296.234375 244.738281 C 296.605469 244.160156 297.378906 243.996094 297.960938 244.359375 L 344.210938 273.945313 C 344.789063 274.320313 344.960938 275.089844 344.589844 275.675781 C 344.359375 276.046875 343.953125 276.25 343.539063 276.25 Z "/>
<path style=" stroke:none;fill-rule:nonzero;fill:#472B29;fill-opacity:1;" d="M 292.5 243.75 C 292.269531 243.75 292.035156 243.683594 291.824219 243.554688 L 284.324219 238.765625 C 283.746094 238.394531 283.574219 237.621094 283.945313 237.035156 C 284.316406 236.453125 285.089844 236.289063 285.671875 236.65625 L 293.171875 241.445313 C 293.75 241.816406 293.921875 242.589844 293.550781 243.175781 C 293.316406 243.546875 292.910156 243.75 292.5 243.75 Z "/>
</g>
</svg>
