<?xml version="1.0" encoding="UTF-8"?>
<svg xmlns="http://www.w3.org/2000/svg" xmlns:xlink="http://www.w3.org/1999/xlink" width="500pt" height="500pt" viewBox="0 0 500 500" version="1.1">
<g id="surface1">
<path style=" stroke:none;fill-rule:nonzero;fill:#EE3E54;fill-opacity:1;" d="M 75 145 C 75 150.523438 70.523438 155 65 155 C 59.476563 155 55 150.523438 55 145 C 55 139.476563 59.476563 135 65 135 C 70.523438 135 75 139.476563 75 145 Z "/>
<path style=" stroke:none;fill-rule:nonzero;fill:#F1BC19;fill-opacity:1;" d="M 390 65 C 390 67.761719 387.761719 70 385 70 C 382.238281 70 380 67.761719 380 65 C 380 62.238281 382.238281 60 385 60 C 387.761719 60 390 62.238281 390 65 Z "/>
<path style=" stroke:none;fill-rule:nonzero;fill:#FCE0A2;fill-opacity:1;" d="M 435 250 C 435 352.171875 352.171875 435 250 435 C 147.828125 435 65 352.171875 65 250 C 65 147.828125 147.828125 65 250 65 C 352.171875 65 435 147.828125 435 250 Z "/>
<path style=" stroke:none;fill-rule:nonzero;fill:#F1BC19;fill-opacity:1;" d="M 435 75 C 435 86.046875 426.046875 95 415 95 C 403.953125 95 395 86.046875 395 75 C 395 63.953125 403.953125 55 415 55 C 426.046875 55 435 63.953125 435 75 Z "/>
<path style=" stroke:none;fill-rule:nonzero;fill:#EE3E54;fill-opacity:1;" d="M 445 120 C 445 125.523438 440.523438 130 435 130 C 429.476563 130 425 125.523438 425 120 C 425 114.476563 429.476563 110 435 110 C 440.523438 110 445 114.476563 445 120 Z "/>
<path style=" stroke:none;fill-rule:nonzero;fill:#FBCD59;fill-opacity:1;" d="M 415 380 C 415 385.523438 410.523438 390 405 390 C 399.476563 390 395 385.523438 395 380 C 395 374.476563 399.476563 370 405 370 C 410.523438 370 415 374.476563 415 380 Z "/>
<path style=" stroke:none;fill-rule:nonzero;fill:#FBCD59;fill-opacity:1;" d="M 95 315 C 95 326.046875 86.046875 335 75 335 C 63.953125 335 55 326.046875 55 315 C 55 303.953125 63.953125 295 75 295 C 86.046875 295 95 303.953125 95 315 Z "/>
<path style=" stroke:none;fill-rule:nonzero;fill:#EE3E54;fill-opacity:1;" d="M 135 435 C 135 440.523438 130.523438 445 125 445 C 119.476563 445 115 440.523438 115 435 C 115 429.476563 119.476563 425 125 425 C 130.523438 425 135 429.476563 135 435 Z "/>
<path style=" stroke:none;fill-rule:nonzero;fill:#FFFFFF;fill-opacity:1;" d="M 105 267.5 C 105 274.402344 99.402344 280 92.5 280 C 85.597656 280 80 274.402344 80 267.5 C 80 260.597656 85.597656 255 92.5 255 C 99.402344 255 105 260.597656 105 267.5 Z "/>
<path style=" stroke:none;fill-rule:nonzero;fill:#F1BC19;fill-opacity:1;" d="M 110 335 C 110 337.761719 107.761719 340 105 340 C 102.238281 340 100 337.761719 100 335 C 100 332.238281 102.238281 330 105 330 C 107.761719 330 110 332.238281 110 335 Z "/>
<path style=" stroke:none;fill-rule:nonzero;fill:#FFFFFF;fill-opacity:1;" d="M 405 170 C 405 172.761719 402.761719 175 400 175 C 397.238281 175 395 172.761719 395 170 C 395 167.238281 397.238281 165 400 165 C 402.761719 165 405 167.238281 405 170 Z "/>
<path style=" stroke:none;fill-rule:nonzero;fill:#472B29;fill-opacity:1;" d="M 322.5 291 L 322.5 284 C 336.335938 284 364.589844 273.820313 375.648438 258.46875 C 380.253906 252.085938 381.441406 245.398438 379.179688 238.609375 C 377.34375 233.101563 374.148438 229.53125 369.425781 227.683594 C 354.253906 221.78125 329.445313 235.414063 329.199219 235.558594 L 325.800781 229.433594 C 326.933594 228.804688 353.789063 214.101563 371.953125 221.160156 C 378.65625 223.765625 383.316406 228.890625 385.816406 236.390625 C 388.789063 245.308594 387.234375 254.359375 381.324219 262.554688 C 368.820313 279.921875 338.128906 291 322.5 291 Z "/>
<path style=" stroke:none;fill-rule:nonzero;fill:#F37E98;fill-opacity:1;" d="M 201.453125 331.5 C 161.820313 291.394531 154.199219 255.59375 153.554688 199.910156 C 153.535156 198.191406 154.183594 196.578125 155.386719 195.363281 C 156.570313 194.164063 158.148438 193.503906 159.828125 193.503906 L 335.144531 193.503906 C 336.828125 193.503906 338.410156 194.171875 339.59375 195.371094 C 340.800781 196.59375 341.449219 198.21875 341.421875 199.949219 C 340.566406 253.351563 332.421875 292.105469 293.546875 331.503906 L 201.453125 331.503906 Z "/>
<path style=" stroke:none;fill-rule:nonzero;fill:#472B29;fill-opacity:1;" d="M 335.148438 197 C 336.09375 197 336.734375 197.445313 337.105469 197.824219 C 337.421875 198.144531 337.945313 198.835938 337.925781 199.890625 C 337.085938 251.929688 329.246094 289.789063 292.074219 328.003906 L 202.925781 328.003906 C 165.023438 289.160156 157.683594 254.140625 157.054688 199.871094 C 157.046875 198.824219 157.566406 198.140625 157.878906 197.820313 C 158.25 197.449219 158.886719 197 159.828125 197 L 335.148438 197 M 335.148438 190 L 159.828125 190 C 154.371094 190 149.996094 194.484375 150.054688 199.945313 C 150.691406 254.519531 157.535156 292.535156 200 335 L 295 335 C 335.101563 294.898438 344.039063 254.800781 344.925781 200 C 345.011719 194.519531 340.628906 190 335.148438 190 Z "/>
<path style=" stroke:none;fill-rule:nonzero;fill:#472B29;fill-opacity:1;" d="M 316.109375 237.804688 C 316.003906 237.804688 315.894531 237.800781 315.796875 237.785156 C 314.425781 237.609375 313.449219 236.359375 313.625 234.988281 C 314.296875 229.726563 314.800781 224.21875 315.183594 218.148438 C 315.273438 216.78125 316.328125 215.695313 317.835938 215.808594 C 319.210938 215.898438 320.261719 217.085938 320.175781 218.460938 C 319.789063 224.636719 319.265625 230.246094 318.589844 235.613281 C 318.425781 236.878906 317.351563 237.804688 316.109375 237.804688 Z "/>
<path style=" stroke:none;fill-rule:nonzero;fill:#472B29;fill-opacity:1;" d="M 312.304688 258.601563 C 312.109375 258.601563 311.90625 258.574219 311.703125 258.523438 C 310.363281 258.195313 309.546875 256.839844 309.878906 255.5 C 310.675781 252.269531 311.371094 248.988281 311.980469 245.664063 C 312.234375 244.308594 313.5 243.421875 314.894531 243.660156 C 316.25 243.914063 317.148438 245.214844 316.898438 246.574219 C 316.269531 250 315.554688 253.371094 314.730469 256.699219 C 314.449219 257.835938 313.429688 258.601563 312.304688 258.601563 Z "/>
<path style=" stroke:none;fill-rule:nonzero;fill:#472B29;fill-opacity:1;" d="M 290.851563 306.128906 C 290.355469 306.128906 289.859375 305.984375 289.425781 305.683594 C 288.289063 304.898438 288.011719 303.339844 288.796875 302.203125 C 296.953125 290.441406 302.964844 278.308594 307.179688 265.101563 C 307.601563 263.789063 308.988281 263.054688 310.324219 263.480469 C 311.640625 263.898438 312.363281 265.304688 311.945313 266.625 C 307.574219 280.304688 301.351563 292.878906 292.90625 305.058594 C 292.414063 305.75 291.640625 306.128906 290.851563 306.128906 Z "/>
<path style=" stroke:none;fill-rule:nonzero;fill:#F37E98;fill-opacity:1;" d="M 179.996094 356.5 C 152.714844 356.5 138.679688 324.285156 138.546875 323.953125 C 137.871094 322.421875 137.90625 320.878906 138.621094 319.789063 C 139.171875 318.945313 140.078125 318.5 141.25 318.5 L 356.484375 318.5 C 357.980469 318.5 358.746094 319.25 359.128906 319.886719 C 359.785156 320.964844 359.765625 322.390625 359.078125 323.695313 C 358.878906 324.089844 342.476563 356.5 317.503906 356.5 Z "/>
<path style=" stroke:none;fill-rule:nonzero;fill:#472B29;fill-opacity:1;" d="M 356.011719 322 C 355.984375 322.066406 355.949219 322.136719 355.90625 322.214844 C 355.753906 322.523438 340.023438 353 317.503906 353 L 179.996094 353 C 155.085938 353 141.894531 322.886719 141.734375 322.511719 C 141.644531 322.308594 141.601563 322.136719 141.578125 321.996094 L 356.011719 321.996094 M 356.484375 315 L 141.25 315 C 135.863281 315 133.125 320.316406 135.320313 325.320313 C 135.320313 325.320313 150 360 179.996094 360 L 317.503906 360 C 345 360 362.179688 325.320313 362.179688 325.320313 C 364.683594 320.546875 361.871094 315 356.484375 315 Z "/>
<path style=" stroke:none;fill-rule:nonzero;fill:#472B29;fill-opacity:1;" d="M 252.210938 177.558594 C 251.40625 177.558594 250.609375 177.171875 250.128906 176.441406 C 243.664063 166.726563 242.730469 156.679688 247.078125 143.871094 C 247.53125 142.558594 248.945313 141.878906 250.253906 142.304688 C 251.566406 142.75 252.261719 144.171875 251.820313 145.480469 C 247.964844 156.828125 248.703125 165.253906 254.296875 173.675781 C 255.058594 174.820313 254.75 176.375 253.59375 177.136719 C 253.171875 177.421875 252.691406 177.558594 252.210938 177.558594 Z "/>
<path style=" stroke:none;fill-rule:nonzero;fill:#472B29;fill-opacity:1;" d="M 253.476563 137.296875 C 253.125 137.296875 252.769531 137.21875 252.429688 137.066406 C 251.175781 136.488281 250.628906 135.003906 251.203125 133.75 C 252.558594 130.804688 253.5 127.589844 254.011719 124.191406 C 254.210938 122.824219 255.511719 121.878906 256.84375 122.085938 C 258.210938 122.285156 259.15625 123.558594 258.949219 124.921875 C 258.375 128.789063 257.300781 132.464844 255.746094 135.839844 C 255.324219 136.753906 254.425781 137.296875 253.476563 137.296875 Z "/>
<path style=" stroke:none;fill-rule:nonzero;fill:#472B29;fill-opacity:1;" d="M 256.675781 115.363281 C 255.410156 115.363281 254.324219 114.410156 254.195313 113.125 C 253.546875 106.859375 251.875 102.445313 251.855469 102.398438 C 251.359375 101.109375 252 99.664063 253.289063 99.171875 C 254.59375 98.671875 256.023438 99.316406 256.519531 100.59375 C 256.605469 100.800781 258.449219 105.636719 259.164063 112.601563 C 259.304688 113.976563 258.308594 115.203125 256.941406 115.34375 C 256.851563 115.359375 256.765625 115.363281 256.675781 115.363281 Z "/>
<path style=" stroke:none;fill-rule:nonzero;fill:#472B29;fill-opacity:1;" d="M 282.015625 175.804688 C 281.195313 175.804688 280.390625 175.398438 279.910156 174.660156 C 275.484375 167.785156 274.253906 160.53125 276.039063 151.824219 C 276.320313 150.46875 277.660156 149.589844 278.996094 149.875 C 280.351563 150.15625 281.214844 151.476563 280.945313 152.828125 C 279.414063 160.269531 280.398438 166.171875 284.125 171.953125 C 284.871094 173.113281 284.535156 174.664063 283.375 175.410156 C 282.949219 175.679688 282.480469 175.804688 282.015625 175.804688 Z "/>
<path style=" stroke:none;fill-rule:nonzero;fill:#472B29;fill-opacity:1;" d="M 282.433594 142.351563 C 282.136719 142.351563 281.835938 142.296875 281.535156 142.183594 C 280.246094 141.683594 279.605469 140.238281 280.101563 138.953125 L 280.988281 136.664063 C 285.433594 125.234375 289.636719 114.433594 283.554688 102.808594 C 282.914063 101.589844 283.390625 100.074219 284.613281 99.433594 C 285.820313 98.804688 287.34375 99.269531 287.988281 100.496094 C 295.121094 114.128906 290.308594 126.503906 285.648438 138.476563 L 284.769531 140.75 C 284.390625 141.738281 283.441406 142.351563 282.433594 142.351563 Z "/>
<path style=" stroke:none;fill-rule:nonzero;fill:#472B29;fill-opacity:1;" d="M 217.894531 176.753906 C 217.074219 176.753906 216.269531 176.351563 215.789063 175.609375 C 207.261719 162.339844 212.144531 149.761719 216.875 137.59375 C 221.320313 126.171875 225.515625 115.378906 219.433594 103.753906 C 218.796875 102.535156 219.269531 101.019531 220.496094 100.378906 C 221.71875 99.75 223.226563 100.214844 223.871094 101.441406 C 230.996094 115.074219 226.191406 127.441406 221.539063 139.40625 C 217.066406 150.910156 212.84375 161.773438 220 172.898438 C 220.746094 174.058594 220.410156 175.609375 219.25 176.355469 C 218.828125 176.625 218.359375 176.753906 217.894531 176.753906 Z "/>
<path style=" stroke:none;fill-rule:nonzero;fill:#472B29;fill-opacity:1;" d="M 232.5 208.75 L 167.5 208.75 C 166.808594 208.75 166.25 208.191406 166.25 207.5 C 166.25 206.808594 166.808594 206.25 167.5 206.25 L 232.5 206.25 C 233.191406 206.25 233.75 206.808594 233.75 207.5 C 233.75 208.191406 233.191406 208.75 232.5 208.75 Z "/>
<path style=" stroke:none;fill-rule:nonzero;fill:#472B29;fill-opacity:1;" d="M 282.5 208.75 L 242.5 208.75 C 241.808594 208.75 241.25 208.191406 241.25 207.5 C 241.25 206.808594 241.808594 206.25 242.5 206.25 L 282.5 206.25 C 283.191406 206.25 283.75 206.808594 283.75 207.5 C 283.75 208.191406 283.191406 208.75 282.5 208.75 Z "/>
<path style=" stroke:none;fill-rule:nonzero;fill:#472B29;fill-opacity:1;" d="M 287.5 333.75 L 162.5 333.75 C 161.808594 333.75 161.25 333.191406 161.25 332.5 C 161.25 331.808594 161.808594 331.25 162.5 331.25 L 287.5 331.25 C 288.191406 331.25 288.75 331.808594 288.75 332.5 C 288.75 333.191406 288.191406 333.75 287.5 333.75 Z "/>
<path style=" stroke:none;fill-rule:nonzero;fill:#472B29;fill-opacity:1;" d="M 337.5 333.75 L 302.5 333.75 C 301.808594 333.75 301.25 333.191406 301.25 332.5 C 301.25 331.808594 301.808594 331.25 302.5 331.25 L 337.5 331.25 C 338.191406 331.25 338.75 331.808594 338.75 332.5 C 338.75 333.191406 338.191406 333.75 337.5 333.75 Z "/>
<path style=" stroke:none;fill-rule:nonzero;fill:#472B29;fill-opacity:1;" d="M 322.5 208.75 L 297.5 208.75 C 296.808594 208.75 296.25 208.191406 296.25 207.5 C 296.25 206.808594 296.808594 206.25 297.5 206.25 L 322.5 206.25 C 323.191406 206.25 323.75 206.808594 323.75 207.5 C 323.75 208.191406 323.191406 208.75 322.5 208.75 Z "/>
</g>
</svg>
