<?xml version="1.0" encoding="UTF-8"?>
<svg xmlns="http://www.w3.org/2000/svg" xmlns:xlink="http://www.w3.org/1999/xlink" width="500pt" height="500pt" viewBox="0 0 500 500" version="1.1">
<g id="surface1">
<path style=" stroke:none;fill-rule:nonzero;fill:#EE3E54;fill-opacity:1;" d="M 75 145 C 75 150.523438 70.523438 155 65 155 C 59.476563 155 55 150.523438 55 145 C 55 139.476563 59.476563 135 65 135 C 70.523438 135 75 139.476563 75 145 Z "/>
<path style=" stroke:none;fill-rule:nonzero;fill:#F1BC19;fill-opacity:1;" d="M 390 65 C 390 67.761719 387.761719 70 385 70 C 382.238281 70 380 67.761719 380 65 C 380 62.238281 382.238281 60 385 60 C 387.761719 60 390 62.238281 390 65 Z "/>
<path style=" stroke:none;fill-rule:nonzero;fill:#FCE0A2;fill-opacity:1;" d="M 435 250 C 435 352.171875 352.171875 435 250 435 C 147.828125 435 65 352.171875 65 250 C 65 147.828125 147.828125 65 250 65 C 352.171875 65 435 147.828125 435 250 Z "/>
<path style=" stroke:none;fill-rule:nonzero;fill:#F1BC19;fill-opacity:1;" d="M 435 75 C 435 86.046875 426.046875 95 415 95 C 403.953125 95 395 86.046875 395 75 C 395 63.953125 403.953125 55 415 55 C 426.046875 55 435 63.953125 435 75 Z "/>
<path style=" stroke:none;fill-rule:nonzero;fill:#EE3E54;fill-opacity:1;" d="M 445 120 C 445 125.523438 440.523438 130 435 130 C 429.476563 130 425 125.523438 425 120 C 425 114.476563 429.476563 110 435 110 C 440.523438 110 445 114.476563 445 120 Z "/>
<path style=" stroke:none;fill-rule:nonzero;fill:#FBCD59;fill-opacity:1;" d="M 415 380 C 415 385.523438 410.523438 390 405 390 C 399.476563 390 395 385.523438 395 380 C 395 374.476563 399.476563 370 405 370 C 410.523438 370 415 374.476563 415 380 Z "/>
<path style=" stroke:none;fill-rule:nonzero;fill:#FBCD59;fill-opacity:1;" d="M 95 315 C 95 326.046875 86.046875 335 75 335 C 63.953125 335 55 326.046875 55 315 C 55 303.953125 63.953125 295 75 295 C 86.046875 295 95 303.953125 95 315 Z "/>
<path style=" stroke:none;fill-rule:nonzero;fill:#EE3E54;fill-opacity:1;" d="M 135 435 C 135 440.523438 130.523438 445 125 445 C 119.476563 445 115 440.523438 115 435 C 115 429.476563 119.476563 425 125 425 C 130.523438 425 135 429.476563 135 435 Z "/>
<path style=" stroke:none;fill-rule:nonzero;fill:#FFFFFF;fill-opacity:1;" d="M 105 267.5 C 105 274.402344 99.402344 280 92.5 280 C 85.597656 280 80 274.402344 80 267.5 C 80 260.597656 85.597656 255 92.5 255 C 99.402344 255 105 260.597656 105 267.5 Z "/>
<path style=" stroke:none;fill-rule:nonzero;fill:#F1BC19;fill-opacity:1;" d="M 110 335 C 110 337.761719 107.761719 340 105 340 C 102.238281 340 100 337.761719 100 335 C 100 332.238281 102.238281 330 105 330 C 107.761719 330 110 332.238281 110 335 Z "/>
<path style=" stroke:none;fill-rule:nonzero;fill:#FFFFFF;fill-opacity:1;" d="M 405 170 C 405 172.761719 402.761719 175 400 175 C 397.238281 175 395 172.761719 395 170 C 395 167.238281 397.238281 165 400 165 C 402.761719 165 405 167.238281 405 170 Z "/>
<path style=" stroke:none;fill-rule:nonzero;fill:#EF5390;fill-opacity:1;" d="M 175 361.5 C 154.875 361.5 138.5 345.128906 138.5 325 L 138.5 175 C 138.5 154.875 154.871094 138.5 175 138.5 L 325 138.5 C 345.125 138.5 361.5 154.871094 361.5 175 L 361.5 325 C 361.5 345.125 345.128906 361.5 325 361.5 Z "/>
<path style=" stroke:none;fill-rule:nonzero;fill:#472B29;fill-opacity:1;" d="M 325 142 C 343.195313 142 358 156.804688 358 175 L 358 325 C 358 343.195313 343.195313 358 325 358 L 175 358 C 156.804688 358 142 343.195313 142 325 L 142 175 C 142 156.804688 156.804688 142 175 142 L 325 142 M 325 135 L 175 135 C 153 135 135 153 135 175 L 135 325 C 135 347 153 365 175 365 L 325 365 C 347 365 365 347 365 325 L 365 175 C 365 153 347 135 325 135 Z "/>
<path style=" stroke:none;fill-rule:nonzero;fill:#472B29;fill-opacity:1;" d="M 342.5 236.875 C 341.121094 236.875 340 235.753906 340 234.375 L 340 215 C 340 213.621094 341.121094 212.5 342.5 212.5 C 343.878906 212.5 345 213.621094 345 215 L 345 234.375 C 345 235.753906 343.878906 236.875 342.5 236.875 Z "/>
<path style=" stroke:none;fill-rule:nonzero;fill:#472B29;fill-opacity:1;" d="M 342.5 202.5 C 341.121094 202.5 340 201.378906 340 200 L 340 190 C 340 188.621094 341.121094 187.5 342.5 187.5 C 343.878906 187.5 345 188.621094 345 190 L 345 200 C 345 201.378906 343.878906 202.5 342.5 202.5 Z "/>
<path style=" stroke:none;fill-rule:nonzero;fill:#472B29;fill-opacity:1;" d="M 320 345 L 180 345 C 166.214844 345 155 333.785156 155 320 L 155 180 C 155 166.214844 166.214844 155 180 155 L 306.875 155 C 308.253906 155 309.375 156.121094 309.375 157.5 C 309.375 158.878906 308.253906 160 306.875 160 L 180 160 C 168.96875 160 160 168.96875 160 180 L 160 320 C 160 331.03125 168.96875 340 180 340 L 320 340 C 331.03125 340 340 331.03125 340 320 L 340 248.125 C 340 246.746094 341.121094 245.625 342.5 245.625 C 343.878906 245.625 345 246.746094 345 248.125 L 345 320 C 345 333.785156 333.785156 345 320 345 Z "/>
<path style=" stroke:none;fill-rule:nonzero;fill:#FDFCEE;fill-opacity:1;" d="M 249.996094 185.003906 C 214.160156 185.003906 185.003906 214.160156 185.003906 249.996094 C 185.003906 267.710938 192.144531 283.78125 203.683594 295.519531 C 203.804688 295.664063 203.90625 295.820313 204.039063 295.953125 C 204.179688 296.09375 204.335938 296.191406 204.480469 296.308594 C 216.214844 307.851563 232.285156 314.988281 250 314.988281 C 285.835938 314.988281 314.996094 285.835938 314.996094 249.996094 C 314.984375 214.160156 285.828125 185.003906 249.996094 185.003906 Z M 249.996094 197.675781 C 262.140625 197.675781 273.304688 201.875 282.195313 208.84375 L 208.839844 282.195313 C 201.871094 273.304688 197.671875 262.140625 197.671875 249.996094 C 197.671875 221.144531 221.144531 197.675781 249.996094 197.675781 Z M 249.996094 302.324219 C 237.851563 302.324219 226.683594 298.125 217.796875 291.15625 L 291.15625 217.800781 C 298.125 226.691406 302.324219 237.855469 302.324219 250 C 302.320313 278.851563 278.851563 302.324219 249.996094 302.324219 Z "/>
<path style=" stroke:none;fill-rule:nonzero;fill:#472B29;fill-opacity:1;" d="M 250 316.246094 C 232.570313 316.246094 216.09375 309.480469 203.605469 297.203125 C 203.425781 297.074219 203.285156 296.964844 203.160156 296.839844 C 203.035156 296.71875 202.925781 296.574219 202.816406 296.433594 C 190.519531 283.90625 183.753906 267.425781 183.753906 250 C 183.753906 213.46875 213.46875 183.753906 249.996094 183.753906 C 286.515625 183.753906 316.234375 213.46875 316.246094 250 C 316.246094 286.53125 286.53125 316.246094 250 316.246094 Z M 249.996094 186.253906 C 214.851563 186.253906 186.253906 214.851563 186.253906 250 C 186.253906 266.769531 192.761719 282.621094 204.574219 294.648438 L 205.359375 295.421875 C 217.378906 307.234375 233.230469 313.746094 250 313.746094 C 285.148438 313.746094 313.746094 285.148438 313.746094 250 C 313.734375 214.851563 285.136719 186.253906 249.996094 186.253906 Z M 249.996094 303.574219 C 237.96875 303.574219 226.570313 299.621094 217.023438 292.140625 L 215.914063 291.269531 L 291.265625 215.921875 L 292.136719 217.03125 C 299.613281 226.574219 303.570313 237.976563 303.570313 250.003906 C 303.570313 279.539063 279.539063 303.574219 249.996094 303.574219 Z M 219.691406 291.03125 C 228.550781 297.605469 239 301.074219 249.996094 301.074219 C 278.160156 301.074219 301.070313 278.164063 301.070313 250 C 301.070313 239.003906 297.601563 228.554688 291.023438 219.691406 Z M 208.726563 284.074219 L 207.855469 282.964844 C 200.375 273.425781 196.421875 262.023438 196.421875 249.996094 C 196.421875 220.449219 220.453125 196.414063 249.996094 196.414063 C 262.03125 196.414063 273.429688 200.371094 282.964844 207.855469 L 284.074219 208.726563 Z M 249.996094 198.921875 C 221.835938 198.921875 198.921875 221.835938 198.921875 250 C 198.921875 260.996094 202.386719 271.441406 208.964844 280.304688 L 280.300781 208.96875 C 271.445313 202.394531 260.996094 198.921875 249.996094 198.921875 Z "/>
</g>
</svg>
