<?xml version="1.0" encoding="UTF-8"?>
<svg xmlns="http://www.w3.org/2000/svg" xmlns:xlink="http://www.w3.org/1999/xlink" width="500pt" height="500pt" viewBox="0 0 500 500" version="1.1">
<g id="surface1">
<path style=" stroke:none;fill-rule:nonzero;fill:#EE3E54;fill-opacity:1;" d="M 75 145 C 75 150.523438 70.523438 155 65 155 C 59.476563 155 55 150.523438 55 145 C 55 139.476563 59.476563 135 65 135 C 70.523438 135 75 139.476563 75 145 Z "/>
<path style=" stroke:none;fill-rule:nonzero;fill:#F1BC19;fill-opacity:1;" d="M 390 65 C 390 67.761719 387.761719 70 385 70 C 382.238281 70 380 67.761719 380 65 C 380 62.238281 382.238281 60 385 60 C 387.761719 60 390 62.238281 390 65 Z "/>
<path style=" stroke:none;fill-rule:nonzero;fill:#FCE0A2;fill-opacity:1;" d="M 435 250 C 435 352.171875 352.171875 435 250 435 C 147.828125 435 65 352.171875 65 250 C 65 147.828125 147.828125 65 250 65 C 352.171875 65 435 147.828125 435 250 Z "/>
<path style=" stroke:none;fill-rule:nonzero;fill:#F1BC19;fill-opacity:1;" d="M 435 75 C 435 86.046875 426.046875 95 415 95 C 403.953125 95 395 86.046875 395 75 C 395 63.953125 403.953125 55 415 55 C 426.046875 55 435 63.953125 435 75 Z "/>
<path style=" stroke:none;fill-rule:nonzero;fill:#EE3E54;fill-opacity:1;" d="M 445 120 C 445 125.523438 440.523438 130 435 130 C 429.476563 130 425 125.523438 425 120 C 425 114.476563 429.476563 110 435 110 C 440.523438 110 445 114.476563 445 120 Z "/>
<path style=" stroke:none;fill-rule:nonzero;fill:#FBCD59;fill-opacity:1;" d="M 415 380 C 415 385.523438 410.523438 390 405 390 C 399.476563 390 395 385.523438 395 380 C 395 374.476563 399.476563 370 405 370 C 410.523438 370 415 374.476563 415 380 Z "/>
<path style=" stroke:none;fill-rule:nonzero;fill:#FBCD59;fill-opacity:1;" d="M 95 315 C 95 326.046875 86.046875 335 75 335 C 63.953125 335 55 326.046875 55 315 C 55 303.953125 63.953125 295 75 295 C 86.046875 295 95 303.953125 95 315 Z "/>
<path style=" stroke:none;fill-rule:nonzero;fill:#EE3E54;fill-opacity:1;" d="M 135 435 C 135 440.523438 130.523438 445 125 445 C 119.476563 445 115 440.523438 115 435 C 115 429.476563 119.476563 425 125 425 C 130.523438 425 135 429.476563 135 435 Z "/>
<path style=" stroke:none;fill-rule:nonzero;fill:#FFFFFF;fill-opacity:1;" d="M 105 267.5 C 105 274.402344 99.402344 280 92.5 280 C 85.597656 280 80 274.402344 80 267.5 C 80 260.597656 85.597656 255 92.5 255 C 99.402344 255 105 260.597656 105 267.5 Z "/>
<path style=" stroke:none;fill-rule:nonzero;fill:#F1BC19;fill-opacity:1;" d="M 110 335 C 110 337.761719 107.761719 340 105 340 C 102.238281 340 100 337.761719 100 335 C 100 332.238281 102.238281 330 105 330 C 107.761719 330 110 332.238281 110 335 Z "/>
<path style=" stroke:none;fill-rule:nonzero;fill:#FFFFFF;fill-opacity:1;" d="M 405 170 C 405 172.761719 402.761719 175 400 175 C 397.238281 175 395 172.761719 395 170 C 395 167.238281 397.238281 165 400 165 C 402.761719 165 405 167.238281 405 170 Z "/>
<path style=" stroke:none;fill-rule:nonzero;fill:#A1D3A2;fill-opacity:1;" d="M 362 220 L 362 322 C 362 343.5 344.5 361 323 361 L 177.5 361 C 156 361 138.5 343.5 138.5 322 L 138.5 178 C 138.5 156.5 156 139 177.5 139 L 323 139 C 341 139 356 151 361 168 "/>
<path style=" stroke:none;fill-rule:nonzero;fill:#472B29;fill-opacity:1;" d="M 322.5 365 L 177.5 365 C 154 365 135 346 135 322.5 L 135 178 C 135 154.5 154 135.5 177.5 135.5 L 323 135.5 C 342 135.5 359 148.5 364 167 C 364.5 169 363.5 171 361.5 171.5 C 359.5 172 357.5 171 357 169 C 352.5 153.5 338.5 143 322.5 143 L 177.5 143 C 158 143 142 159 142 178.5 L 142 322.5 C 142 342 158 358 177.5 358 L 323 358 C 342.5 358 358.5 342 358.5 322.5 L 358.5 220 C 358.5 218 360 216.5 362 216.5 C 364 216.5 365.5 218 365.5 220 L 365.5 322 C 365.5 345.5 346 365 322.5 365 Z "/>
<path style=" stroke:none;fill-rule:nonzero;fill:#472B29;fill-opacity:1;" d="M 342.5 297 C 341 297 340 296 340 294.5 L 340 275 C 340 273.5 341 272.5 342.5 272.5 C 344 272.5 345 273.5 345 275 L 345 294.5 C 345 296 344 297 342.5 297 Z "/>
<path style=" stroke:none;fill-rule:nonzero;fill:#472B29;fill-opacity:1;" d="M 342.5 262.5 C 341 262.5 340 261.5 340 260 L 340 250 C 340 248.5 341 247.5 342.5 247.5 C 344 247.5 345 248.5 345 250 L 345 260 C 345 261.5 344 262.5 342.5 262.5 Z "/>
<path style=" stroke:none;fill-rule:nonzero;fill:#472B29;fill-opacity:1;" d="M 320 345 L 180 345 C 166 345 155 334 155 320 L 155 180 C 155 166 166 155 180 155 L 307 155 C 308.5 155 309.5 156 309.5 157.5 C 309.5 159 308.5 160 307 160 L 180 160 C 169 160 160 169 160 180 L 160 320 C 160 331 169 340 180 340 L 320 340 C 331 340 340 331 340 320 L 340 308 C 340 306.5 341 305.5 342.5 305.5 C 344 305.5 345 306.5 345 308 L 345 320 C 345 334 334 345 320 345 Z "/>
<path style=" stroke:none;fill-rule:nonzero;fill:#00AC9C;fill-opacity:1;" d="M 247.5 312.5 L 247 312.5 C 246.5 312.5 246.5 312.5 246 312.5 C 244 312.5 242 312 241 310.5 L 199.5 269.5 C 198 268 197.5 266.5 197.5 264.5 C 197.5 262.5 198.5 260.5 199.5 259.5 C 201 258 202.5 257.5 204.5 257.5 C 206.5 257.5 208.5 258.5 209.5 259.5 L 245 296.5 L 365 180 C 366.5 178.5 368 178 370 178 C 372 178 374 179 375 180 C 376.5 181.5 377 183 377 185 C 377 187 376 189 375 190 L 253 310.5 C 252.5 311 252 311.5 251 312 C 251 312 250.5 312 250.5 312.5 C 250 312.5 249.5 313 249 313 C 248.5 312.5 248.5 312.5 247.5 312.5 Z "/>
<path style=" stroke:none;fill-rule:nonzero;fill:#472B29;fill-opacity:1;" d="M 371 180 C 372.5 180 373.5 180.5 374.5 181.5 C 376.5 183.5 376.5 186.5 374.5 188.5 L 251.5 308.5 C 251 309 250.5 309 250 309.5 C 250 309.5 249.5 309.5 249.5 309.5 C 249 309.5 249 309.5 248.5 309.5 C 248.5 309.5 248 309.5 248 309.5 C 247.5 309.5 247.5 309.5 247.5 309.5 C 247 309.5 247 309.5 246.5 309.5 C 245.5 309.5 244 309 243 308 L 201.5 267 C 199.5 265 199.5 262 201.5 260 C 202.5 259 203.5 258.5 205 258.5 C 206.5 258.5 207.5 259 208.5 260 L 246 299 L 368 181 C 368.5 180.5 369.5 180 371 180 M 371 175 C 368.5 175 366 176 364 178 L 246 292.5 L 212 257 C 210 255 207.5 254 205 254 C 202.5 254 200 255 198 257 C 196 259 195 261.5 195 264 C 195 266.5 196 269 198 271 L 239.5 312 C 241.5 314 243.5 315 246.5 315 C 246.5 315 247 315 247 315 C 247.5 315 247.5 315 248 315 C 248.5 315 249.5 315 249.5 315 C 250 315 250.5 315 251 314.5 C 251.5 314.5 252 314 252 314 C 253 313.5 254 313 254.5 312 L 377.5 192 C 379.5 190 380.5 187.5 380.5 185 C 380.5 182.5 379.5 180 377.5 178 C 376 176 373.5 175 371 175 Z "/>
</g>
</svg>
