<?xml version="1.0" encoding="UTF-8"?>
<svg xmlns="http://www.w3.org/2000/svg" xmlns:xlink="http://www.w3.org/1999/xlink" width="500pt" height="500pt" viewBox="0 0 500 500" version="1.1">
<g id="surface1">
<path style=" stroke:none;fill-rule:nonzero;fill:#C7EDE6;fill-opacity:1;" d="M 443.519531 280.664063 C 445.019531 277.585938 446.351563 274.34375 447.5 270.949219 C 460.664063 232.101563 440.753906 185.558594 398.835938 174.324219 C 394.300781 117.410156 354.300781 78.363281 309.128906 71.703125 C 257.425781 64.078125 210.058594 96.925781 194.300781 149.128906 C 175.304688 142.398438 156.796875 143.21875 139.351563 153.414063 C 131.433594 157.074219 124.195313 162.476563 117.699219 169.578125 C 108.164063 180.011719 101.964844 193.175781 99.441406 207.054688 C 95.699219 207.644531 92.023438 208.234375 88.558594 209.476563 C 68.359375 216.71875 55.613281 231.628906 52.121094 254.089844 C 49.945313 268.074219 54.335938 282.023438 56.785156 287.660156 C 66.460938 309.933594 88.894531 322.558594 111.691406 319.21875 C 112.824219 319.054688 114.476563 319.566406 115.449219 320.386719 C 116.65625 355.984375 133.941406 387.46875 159.871094 405.453125 C 201.476563 434.316406 255 425.425781 288.769531 385.851563 C 303.238281 400.648438 320.460938 407.839844 340.691406 405.230469 C 360.804688 402.636719 376.425781 391.535156 387.820313 373.484375 C 393.085938 374.898438 398.074219 376.941406 403.234375 377.503906 C 423.445313 379.714844 439.855469 371.679688 451.894531 353.503906 C 456.503906 346.550781 460.859375 337.535156 460.859375 321.734375 C 460.871094 305.449219 454.398438 290.613281 443.519531 280.664063 Z "/>
<path style=" stroke:none;fill-rule:nonzero;fill:#FDFCEF;fill-opacity:1;" d="M 344.835938 246.515625 C 344.835938 246.515625 403.289063 246.515625 403.644531 246.515625 C 417.144531 246.515625 428.085938 235.570313 428.085938 222.070313 C 428.085938 210.296875 419.753906 200.464844 408.664063 198.148438 C 408.796875 197.121094 408.878906 196.074219 408.878906 195.011719 C 408.878906 181.03125 397.546875 169.695313 383.566406 169.695313 C 375.308594 169.695313 368 173.664063 363.378906 179.78125 C 362.199219 164.214844 348.296875 152.210938 332.03125 154.199219 C 320.136719 155.65625 310.300781 164.851563 308.109375 176.628906 C 307.410156 180.410156 307.480469 184.074219 308.179688 187.515625 C 304.988281 184.078125 300.449219 181.921875 295.394531 181.921875 C 286.144531 181.921875 278.589844 189.125 277.996094 198.226563 C 273.796875 197.296875 269.226563 197.355469 264.410156 199.164063 C 255.210938 202.621094 248.660156 211.28125 248.273438 221.101563 C 247.730469 235.046875 258.875 246.523438 272.699219 246.523438 C 273.75 246.523438 277.441406 246.523438 278.289063 246.523438 L 329.046875 246.523438 "/>
<path style=" stroke:none;fill-rule:nonzero;fill:#472B29;fill-opacity:1;" d="M 403.644531 249.015625 L 344.835938 249.015625 C 343.453125 249.015625 342.335938 247.894531 342.335938 246.515625 C 342.335938 245.136719 343.453125 244.015625 344.835938 244.015625 L 403.644531 244.015625 C 415.738281 244.015625 425.585938 234.171875 425.585938 222.070313 C 425.585938 211.738281 418.253906 202.703125 408.15625 200.59375 C 406.878906 200.328125 406.023438 199.128906 406.183594 197.835938 C 406.300781 196.90625 406.378906 195.964844 406.378906 195.011719 C 406.378906 182.429688 396.144531 172.195313 383.570313 172.195313 C 376.375 172.195313 369.746094 175.511719 365.378906 181.285156 C 364.753906 182.121094 363.683594 182.488281 362.679688 182.175781 C 361.683594 181.878906 360.96875 181.003906 360.894531 179.96875 C 360.375 173.085938 357 166.613281 351.644531 162.226563 C 346.230469 157.789063 339.386719 155.816406 332.339844 156.679688 C 321.511719 158.003906 312.566406 166.394531 310.574219 177.085938 C 309.953125 180.421875 309.976563 183.765625 310.640625 187.015625 C 310.859375 188.113281 310.328125 189.226563 309.328125 189.734375 C 308.328125 190.246094 307.113281 190.035156 306.355469 189.214844 C 303.480469 186.121094 299.589844 184.421875 295.40625 184.421875 C 287.558594 184.421875 281.015625 190.554688 280.5 198.390625 C 280.449219 199.121094 280.085938 199.789063 279.503906 200.226563 C 278.925781 200.660156 278.175781 200.824219 277.464844 200.664063 C 273.253906 199.730469 269.273438 200.011719 265.300781 201.5 C 256.953125 204.628906 251.125 212.539063 250.785156 221.191406 C 250.550781 227.226563 252.714844 232.941406 256.890625 237.28125 C 261.066406 241.625 266.683594 244.015625 272.710938 244.015625 L 329.054688 244.015625 C 330.433594 244.015625 331.554688 245.136719 331.554688 246.515625 C 331.554688 247.894531 330.433594 249.015625 329.054688 249.015625 L 272.710938 249.015625 C 265.316406 249.015625 258.414063 246.078125 253.289063 240.746094 C 248.164063 235.414063 245.5 228.398438 245.789063 220.996094 C 246.203125 210.363281 253.339844 200.648438 263.539063 196.820313 C 267.546875 195.320313 271.683594 194.820313 275.878906 195.324219 C 277.765625 186.210938 285.871094 179.414063 295.40625 179.414063 C 298.824219 179.414063 302.175781 180.316406 305.125 181.964844 C 305.125 180.039063 305.300781 178.105469 305.65625 176.171875 C 308.039063 163.359375 318.761719 153.304688 331.730469 151.71875 C 340.125 150.675781 348.335938 153.050781 354.808594 158.359375 C 359.828125 162.476563 363.390625 168.113281 365 174.324219 C 370.058594 169.746094 376.59375 167.195313 383.570313 167.195313 C 398.90625 167.195313 411.378906 179.675781 411.378906 195.011719 C 411.378906 195.425781 411.371094 195.839844 411.34375 196.253906 C 422.613281 199.613281 430.585938 210.140625 430.585938 222.074219 C 430.589844 236.925781 418.503906 249.015625 403.644531 249.015625 Z "/>
<path style=" stroke:none;fill-rule:nonzero;fill:#FDFCEF;fill-opacity:1;" d="M 330.671875 192.671875 C 321.628906 192.074219 313.84375 198.320313 313.289063 206.613281 C 313.21875 207.644531 313.265625 208.660156 313.414063 209.644531 C 311.671875 207.675781 309.089844 206.339844 306.125 206.144531 C 300.699219 205.789063 296.015625 209.371094 295.335938 214.246094 C 294.351563 213.976563 293.320313 213.796875 292.253906 213.726563 C 284.34375 213.203125 277.535156 218.671875 277.046875 225.929688 "/>
<path style=" stroke:none;fill-rule:nonzero;fill:#472B29;fill-opacity:1;" d="M 277.050781 227.175781 C 277.019531 227.175781 276.988281 227.175781 276.964844 227.175781 C 276.273438 227.128906 275.753906 226.535156 275.800781 225.84375 C 276.328125 217.910156 283.726563 211.898438 292.339844 212.476563 C 293.015625 212.519531 293.695313 212.609375 294.378906 212.738281 C 295.746094 207.898438 300.675781 204.519531 306.210938 204.898438 C 308.335938 205.039063 310.324219 205.699219 312.023438 206.808594 C 312.03125 206.714844 312.035156 206.621094 312.039063 206.53125 C 312.644531 197.570313 321.050781 190.820313 330.75 191.425781 C 331.441406 191.46875 331.960938 192.066406 331.914063 192.753906 C 331.871094 193.441406 331.300781 193.976563 330.585938 193.921875 C 322.269531 193.394531 315.046875 199.105469 314.535156 206.699219 C 314.46875 207.609375 314.511719 208.539063 314.648438 209.464844 C 314.734375 210.011719 314.445313 210.550781 313.945313 210.785156 C 313.441406 211.023438 312.84375 210.894531 312.480469 210.480469 C 310.863281 208.65625 308.578125 207.558594 306.046875 207.394531 C 301.355469 207.066406 297.164063 210.171875 296.574219 214.421875 C 296.523438 214.773438 296.324219 215.089844 296.023438 215.289063 C 295.71875 215.488281 295.355469 215.550781 295.003906 215.453125 C 294.066406 215.199219 293.109375 215.035156 292.171875 214.976563 C 284.988281 214.480469 278.734375 219.453125 278.289063 226.015625 C 278.25 226.671875 277.699219 227.175781 277.050781 227.175781 Z "/>
<path style=" stroke:none;fill-rule:nonzero;fill:#FDFCEF;fill-opacity:1;" d="M 413.546875 201.015625 C 405.050781 197.011719 395.226563 199.84375 391.601563 207.351563 C 391.148438 208.28125 390.816406 209.246094 390.59375 210.21875 "/>
<path style=" stroke:none;fill-rule:nonzero;fill:#472B29;fill-opacity:1;" d="M 390.59375 211.464844 C 390.503906 211.464844 390.410156 211.453125 390.316406 211.433594 C 389.640625 211.28125 389.21875 210.609375 389.375 209.941406 C 389.621094 208.859375 389.988281 207.804688 390.46875 206.808594 C 394.386719 198.699219 404.976563 195.59375 414.074219 199.890625 C 414.699219 200.183594 414.96875 200.929688 414.675781 201.554688 C 414.386719 202.183594 413.636719 202.445313 413.011719 202.15625 C 405.144531 198.453125 396.046875 201.03125 392.71875 207.90625 C 392.320313 208.730469 392.015625 209.605469 391.808594 210.503906 C 391.679688 211.070313 391.164063 211.464844 390.59375 211.464844 Z "/>
<path style=" stroke:none;fill-rule:nonzero;fill:#FFFFFF;fill-opacity:1;" d="M 91.84375 240.84375 L 41.691406 240.84375 C 40.308594 240.84375 39.191406 239.726563 39.191406 238.34375 C 39.191406 236.964844 40.308594 235.84375 41.691406 235.84375 L 91.839844 235.84375 C 93.21875 235.84375 94.339844 236.964844 94.339844 238.34375 C 94.339844 239.726563 93.226563 240.84375 91.84375 240.84375 Z "/>
<path style=" stroke:none;fill-rule:nonzero;fill:#FFFFFF;fill-opacity:1;" d="M 106.246094 240.84375 L 99.015625 240.84375 C 97.636719 240.84375 96.515625 239.726563 96.515625 238.34375 C 96.515625 236.964844 97.636719 235.84375 99.015625 235.84375 L 106.246094 235.84375 C 107.625 235.84375 108.746094 236.964844 108.746094 238.34375 C 108.746094 239.726563 107.628906 240.84375 106.246094 240.84375 Z "/>
<path style=" stroke:none;fill-rule:nonzero;fill:#FFFFFF;fill-opacity:1;" d="M 126.519531 240.84375 L 113.789063 240.84375 C 112.410156 240.84375 111.289063 239.726563 111.289063 238.34375 C 111.289063 236.964844 112.410156 235.84375 113.789063 235.84375 L 126.519531 235.84375 C 127.898438 235.84375 129.019531 236.964844 129.019531 238.34375 C 129.019531 239.726563 127.898438 240.84375 126.519531 240.84375 Z "/>
<path style=" stroke:none;fill-rule:nonzero;fill:#FFFFFF;fill-opacity:1;" d="M 126.519531 250.171875 L 78.441406 250.171875 C 77.058594 250.171875 75.941406 249.050781 75.941406 247.671875 C 75.941406 246.289063 77.058594 245.171875 78.441406 245.171875 L 126.519531 245.171875 C 127.898438 245.171875 129.019531 246.289063 129.019531 247.671875 C 129.019531 249.050781 127.898438 250.171875 126.519531 250.171875 Z "/>
<path style=" stroke:none;fill-rule:nonzero;fill:#FFFFFF;fill-opacity:1;" d="M 69.78125 250.171875 L 66.878906 250.171875 C 65.5 250.171875 64.378906 249.050781 64.378906 247.671875 C 64.378906 246.289063 65.5 245.171875 66.878906 245.171875 L 69.78125 245.171875 C 71.160156 245.171875 72.28125 246.289063 72.28125 247.671875 C 72.28125 249.050781 71.164063 250.171875 69.78125 250.171875 Z "/>
<path style=" stroke:none;fill-rule:nonzero;fill:#FFFFFF;fill-opacity:1;" d="M 57.894531 250.171875 L 50.613281 250.171875 C 49.234375 250.171875 48.113281 249.050781 48.113281 247.671875 C 48.113281 246.289063 49.234375 245.171875 50.613281 245.171875 L 57.894531 245.171875 C 59.273438 245.171875 60.394531 246.289063 60.394531 247.671875 C 60.394531 249.050781 59.28125 250.171875 57.894531 250.171875 Z "/>
<path style=" stroke:none;fill-rule:nonzero;fill:#FFFFFF;fill-opacity:1;" d="M 103.574219 231.519531 L 78.441406 231.519531 C 77.058594 231.519531 75.941406 230.398438 75.941406 229.019531 C 75.941406 227.640625 77.058594 226.519531 78.441406 226.519531 L 103.574219 226.519531 C 104.953125 226.519531 106.074219 227.640625 106.074219 229.019531 C 106.074219 230.398438 104.960938 231.519531 103.574219 231.519531 Z "/>
<path style=" stroke:none;fill-rule:nonzero;fill:#FFFFFF;fill-opacity:1;" d="M 103.574219 222.199219 L 97.289063 222.199219 C 95.910156 222.199219 94.789063 221.078125 94.789063 219.699219 C 94.789063 218.320313 95.910156 217.199219 97.289063 217.199219 L 103.574219 217.199219 C 104.953125 217.199219 106.074219 218.320313 106.074219 219.699219 C 106.074219 221.078125 104.960938 222.199219 103.574219 222.199219 Z "/>
<path style=" stroke:none;fill-rule:nonzero;fill:#FFFFFF;fill-opacity:1;" d="M 87.234375 259.496094 L 78.441406 259.496094 C 77.058594 259.496094 75.941406 258.375 75.941406 256.996094 C 75.941406 255.613281 77.058594 254.496094 78.441406 254.496094 L 87.234375 254.496094 C 88.613281 254.496094 89.734375 255.613281 89.734375 256.996094 C 89.734375 258.375 88.613281 259.496094 87.234375 259.496094 Z "/>
<path style=" stroke:none;fill-rule:nonzero;fill:#FFFFFF;fill-opacity:1;" d="M 357.730469 109.460938 L 307.578125 109.460938 C 306.199219 109.460938 305.078125 108.339844 305.078125 106.960938 C 305.078125 105.578125 306.199219 104.460938 307.578125 104.460938 L 357.730469 104.460938 C 359.109375 104.460938 360.230469 105.578125 360.230469 106.960938 C 360.230469 108.339844 359.113281 109.460938 357.730469 109.460938 Z "/>
<path style=" stroke:none;fill-rule:nonzero;fill:#FFFFFF;fill-opacity:1;" d="M 372.140625 109.460938 L 364.910156 109.460938 C 363.53125 109.460938 362.410156 108.339844 362.410156 106.960938 C 362.410156 105.578125 363.53125 104.460938 364.910156 104.460938 L 372.140625 104.460938 C 373.519531 104.460938 374.640625 105.578125 374.640625 106.960938 C 374.640625 108.339844 373.519531 109.460938 372.140625 109.460938 Z "/>
<path style=" stroke:none;fill-rule:nonzero;fill:#FFFFFF;fill-opacity:1;" d="M 392.410156 109.460938 L 379.679688 109.460938 C 378.300781 109.460938 377.179688 108.339844 377.179688 106.960938 C 377.179688 105.578125 378.300781 104.460938 379.679688 104.460938 L 392.410156 104.460938 C 393.789063 104.460938 394.910156 105.578125 394.910156 106.960938 C 394.910156 108.339844 393.796875 109.460938 392.410156 109.460938 Z "/>
<path style=" stroke:none;fill-rule:nonzero;fill:#FFFFFF;fill-opacity:1;" d="M 382.28125 90.808594 L 334.199219 90.808594 C 332.820313 90.808594 331.699219 89.691406 331.699219 88.308594 C 331.699219 86.929688 332.820313 85.808594 334.199219 85.808594 L 382.285156 85.808594 C 383.664063 85.808594 384.785156 86.929688 384.785156 88.308594 C 384.785156 89.691406 383.664063 90.808594 382.28125 90.808594 Z "/>
<path style=" stroke:none;fill-rule:nonzero;fill:#FFFFFF;fill-opacity:1;" d="M 325.539063 90.808594 L 322.640625 90.808594 C 321.261719 90.808594 320.140625 89.691406 320.140625 88.308594 C 320.140625 86.929688 321.261719 85.808594 322.640625 85.808594 L 325.539063 85.808594 C 326.921875 85.808594 328.039063 86.929688 328.039063 88.308594 C 328.039063 89.691406 326.925781 90.808594 325.539063 90.808594 Z "/>
<path style=" stroke:none;fill-rule:nonzero;fill:#FFFFFF;fill-opacity:1;" d="M 313.660156 90.808594 L 306.375 90.808594 C 304.996094 90.808594 303.875 89.691406 303.875 88.308594 C 303.875 86.929688 304.996094 85.808594 306.375 85.808594 L 313.660156 85.808594 C 315.039063 85.808594 316.160156 86.929688 316.160156 88.308594 C 316.160156 89.691406 315.039063 90.808594 313.660156 90.808594 Z "/>
<path style=" stroke:none;fill-rule:nonzero;fill:#FFFFFF;fill-opacity:1;" d="M 369.464844 100.140625 L 344.324219 100.140625 C 342.945313 100.140625 341.824219 99.019531 341.824219 97.640625 C 341.824219 96.261719 342.945313 95.140625 344.324219 95.140625 L 369.464844 95.140625 C 370.84375 95.140625 371.964844 96.261719 371.964844 97.640625 C 371.964844 99.019531 370.851563 100.140625 369.464844 100.140625 Z "/>
<path style=" stroke:none;fill-rule:nonzero;fill:#FFFFFF;fill-opacity:1;" d="M 369.464844 90.808594 L 363.179688 90.808594 C 361.800781 90.808594 360.679688 89.691406 360.679688 88.308594 C 360.679688 86.929688 361.800781 85.808594 363.179688 85.808594 L 369.464844 85.808594 C 370.84375 85.808594 371.964844 86.929688 371.964844 88.308594 C 371.964844 89.691406 370.851563 90.808594 369.464844 90.808594 Z "/>
<path style=" stroke:none;fill-rule:nonzero;fill:#FFFFFF;fill-opacity:1;" d="M 337.054688 100.140625 L 328.261719 100.140625 C 326.878906 100.140625 325.761719 99.019531 325.761719 97.640625 C 325.761719 96.261719 326.878906 95.140625 328.261719 95.140625 L 337.054688 95.140625 C 338.433594 95.140625 339.554688 96.261719 339.554688 97.640625 C 339.554688 99.019531 338.433594 100.140625 337.054688 100.140625 Z "/>
<path style=" stroke:none;fill-rule:nonzero;fill:#D68E54;fill-opacity:1;" d="M 330.296875 164.214844 L 311.09375 381.675781 L 216.363281 381.675781 L 193.324219 164.214844 "/>
<path style=" stroke:none;fill-rule:nonzero;fill:#472B29;fill-opacity:1;" d="M 314.300781 385.175781 L 213.214844 385.175781 L 189.839844 164.578125 C 189.636719 162.660156 191.03125 160.933594 192.953125 160.730469 C 194.839844 160.535156 196.601563 161.921875 196.804688 163.84375 L 219.515625 378.175781 L 307.890625 378.175781 L 326.808594 163.90625 C 326.980469 161.976563 328.699219 160.566406 330.605469 160.726563 C 332.53125 160.894531 333.953125 162.59375 333.785156 164.519531 Z "/>
<path style=" stroke:none;fill-rule:nonzero;fill:#88AE45;fill-opacity:1;" d="M 218.535156 199.253906 L 198.320313 199.253906 L 211.304688 313.335938 L 315.949219 313.335938 L 325.816406 199.253906 L 251.816406 199.253906 "/>
<path style=" stroke:none;fill-rule:nonzero;fill:#472B29;fill-opacity:1;" d="M 315.949219 315.085938 L 211.304688 315.085938 C 210.414063 315.085938 209.664063 314.414063 209.566406 313.53125 L 196.578125 199.449219 C 196.523438 198.953125 196.679688 198.460938 197.011719 198.089844 C 197.339844 197.714844 197.820313 197.503906 198.316406 197.503906 L 218.53125 197.503906 C 219.496094 197.503906 220.28125 198.289063 220.28125 199.253906 C 220.28125 200.21875 219.496094 201.003906 218.53125 201.003906 L 200.273438 201.003906 L 212.863281 311.585938 L 314.34375 311.585938 L 323.910156 201.003906 L 251.816406 201.003906 C 250.851563 201.003906 250.066406 200.21875 250.066406 199.253906 C 250.066406 198.289063 250.851563 197.503906 251.816406 197.503906 L 325.816406 197.503906 C 326.304688 197.503906 326.769531 197.710938 327.105469 198.070313 C 327.441406 198.429688 327.601563 198.914063 327.558594 199.40625 L 317.695313 313.484375 C 317.613281 314.390625 316.855469 315.085938 315.949219 315.085938 Z "/>
<path style=" stroke:none;fill-rule:nonzero;fill:#CDCBBD;fill-opacity:1;" d="M 198.320313 148.261719 L 205.484375 133.328125 L 318.136719 133.328125 L 325.816406 149.328125 L 262.769531 149.328125 "/>
<path style=" stroke:none;fill-rule:nonzero;fill:#472B29;fill-opacity:1;" d="M 325.816406 151.828125 L 262.769531 151.828125 C 261.390625 151.828125 260.269531 150.710938 260.269531 149.328125 C 260.269531 147.949219 261.390625 146.828125 262.769531 146.828125 L 321.839844 146.828125 L 316.558594 135.828125 L 207.054688 135.828125 L 200.570313 149.339844 C 199.96875 150.585938 198.484375 151.109375 197.234375 150.511719 C 195.988281 149.910156 195.464844 148.421875 196.066406 147.175781 L 203.234375 132.246094 C 203.648438 131.378906 204.523438 130.824219 205.488281 130.824219 L 318.140625 130.824219 C 319.101563 130.824219 319.980469 131.375 320.394531 132.246094 L 328.074219 148.246094 C 328.445313 149.019531 328.394531 149.929688 327.941406 150.65625 C 327.46875 151.390625 326.675781 151.828125 325.816406 151.828125 Z "/>
<path style=" stroke:none;fill-rule:nonzero;fill:#FDFCEF;fill-opacity:1;" d="M 331.574219 163.414063 L 192.046875 163.414063 C 188.175781 163.414063 185.003906 160.246094 185.003906 156.375 C 185.003906 152.503906 188.175781 149.335938 192.046875 149.335938 L 331.578125 149.335938 C 335.453125 149.335938 338.621094 152.503906 338.621094 156.375 C 338.613281 160.246094 335.449219 163.414063 331.574219 163.414063 Z "/>
<path style=" stroke:none;fill-rule:nonzero;fill:#472B29;fill-opacity:1;" d="M 331.574219 165.914063 L 192.046875 165.914063 C 186.785156 165.914063 182.503906 161.636719 182.503906 156.375 C 182.503906 151.113281 186.785156 146.835938 192.046875 146.835938 L 331.578125 146.835938 C 336.839844 146.835938 341.121094 151.113281 341.121094 156.375 C 341.121094 161.636719 336.839844 165.914063 331.574219 165.914063 Z M 192.046875 151.828125 C 189.539063 151.828125 187.503906 153.863281 187.503906 156.371094 C 187.503906 158.875 189.539063 160.910156 192.046875 160.910156 L 331.578125 160.910156 C 334.085938 160.910156 336.121094 158.875 336.121094 156.371094 C 336.121094 153.863281 334.085938 151.828125 331.578125 151.828125 Z "/>
<path style=" stroke:none;fill-rule:nonzero;fill:#E1E0D8;fill-opacity:1;" d="M 233.328125 200.535156 C 233.328125 200.535156 213.484375 220.066406 213.484375 225.160156 L 213.484375 260.714844 C 213.484375 265.808594 217.65625 269.980469 222.75 269.980469 L 244.863281 269.980469 C 249.960938 269.980469 254.128906 265.808594 254.128906 260.714844 L 254.128906 225.160156 C 254.128906 220.070313 233.328125 200.535156 233.328125 200.535156 Z M 233.804688 224.859375 C 231.421875 224.859375 229.484375 222.925781 229.484375 220.539063 C 229.484375 218.15625 231.421875 216.21875 233.804688 216.21875 C 236.191406 216.21875 238.125 218.15625 238.125 220.539063 C 238.128906 222.925781 236.195313 224.859375 233.804688 224.859375 Z "/>
<path style=" stroke:none;fill-rule:nonzero;fill:#472B29;fill-opacity:1;" d="M 244.863281 271.734375 L 222.75 271.734375 C 216.679688 271.734375 211.734375 266.796875 211.734375 260.71875 L 211.734375 225.164063 C 211.734375 219.753906 227.324219 203.996094 232.101563 199.289063 C 232.769531 198.636719 233.84375 198.625 234.523438 199.261719 C 239.53125 203.964844 255.878906 219.734375 255.878906 225.164063 L 255.878906 260.71875 C 255.878906 266.796875 250.941406 271.734375 244.863281 271.734375 Z M 233.359375 202.976563 C 224.425781 211.90625 215.234375 222.585938 215.234375 225.164063 L 215.234375 260.71875 C 215.234375 264.863281 218.605469 268.234375 222.746094 268.234375 L 244.859375 268.234375 C 249.003906 268.234375 252.375 264.863281 252.375 260.71875 L 252.375 225.164063 C 252.378906 222.59375 242.730469 211.90625 233.359375 202.976563 Z M 233.808594 226.609375 C 230.464844 226.609375 227.738281 223.886719 227.738281 220.539063 C 227.738281 217.195313 230.464844 214.46875 233.808594 214.46875 C 237.15625 214.46875 239.878906 217.191406 239.878906 220.539063 C 239.878906 223.890625 237.15625 226.609375 233.808594 226.609375 Z M 233.808594 217.96875 C 232.390625 217.96875 231.238281 219.121094 231.238281 220.539063 C 231.238281 221.960938 232.390625 223.109375 233.808594 223.109375 C 235.226563 223.109375 236.378906 221.960938 236.378906 220.539063 C 236.375 219.125 235.226563 217.96875 233.808594 217.96875 Z "/>
<path style=" stroke:none;fill-rule:nonzero;fill:#472B29;fill-opacity:1;" d="M 233.324219 201.003906 C 232.359375 201.003906 231.574219 200.21875 231.574219 199.253906 L 231.574219 164.050781 C 231.574219 163.085938 232.359375 162.300781 233.324219 162.300781 C 234.289063 162.300781 235.074219 163.085938 235.074219 164.050781 L 235.074219 199.253906 C 235.074219 200.226563 234.296875 201.003906 233.324219 201.003906 Z "/>
<path style=" stroke:none;fill-rule:nonzero;fill:#472B29;fill-opacity:1;" d="M 301.675781 305.964844 C 301.640625 305.964844 301.601563 305.964844 301.566406 305.960938 C 300.601563 305.898438 299.863281 305.070313 299.925781 304.105469 L 305.59375 211.789063 C 305.65625 210.824219 306.535156 210.121094 307.449219 210.148438 C 308.414063 210.210938 309.148438 211.039063 309.089844 212.003906 L 303.421875 304.320313 C 303.359375 305.25 302.589844 305.964844 301.675781 305.964844 Z "/>
<path style=" stroke:none;fill-rule:nonzero;fill:#472B29;fill-opacity:1;" d="M 283.066406 305.964844 C 283.050781 305.964844 283.03125 305.964844 283.011719 305.964844 C 282.046875 305.933594 281.285156 305.128906 281.316406 304.164063 L 284.160156 211.523438 C 284.183594 210.558594 284.96875 209.753906 285.960938 209.828125 C 286.925781 209.859375 287.683594 210.664063 287.65625 211.628906 L 284.808594 304.269531 C 284.785156 305.214844 284.003906 305.964844 283.066406 305.964844 Z "/>
<path style=" stroke:none;fill-rule:nonzero;fill:#472B29;fill-opacity:1;" d="M 264.464844 305.964844 C 263.5 305.964844 262.714844 305.179688 262.714844 304.214844 L 262.714844 211.46875 C 262.714844 210.503906 263.5 209.71875 264.464844 209.71875 C 265.429688 209.71875 266.214844 210.503906 266.214844 211.46875 L 266.214844 304.210938 C 266.21875 305.179688 265.433594 305.964844 264.464844 305.964844 Z "/>
<path style=" stroke:none;fill-rule:nonzero;fill:#472B29;fill-opacity:1;" d="M 224.828125 305.964844 C 223.890625 305.964844 223.109375 305.214844 223.078125 304.269531 C 222.875 297.71875 222.765625 293.945313 222.828125 291.761719 L 222.699219 291.765625 L 222.660156 290.546875 L 222.789063 290.539063 C 222.589844 288.363281 222.476563 284.589844 222.273438 278.039063 C 222.246094 277.074219 223.003906 276.269531 223.96875 276.238281 C 224.941406 276.101563 225.746094 276.96875 225.769531 277.933594 L 226.179688 291.164063 C 226.179688 291.195313 226.179688 291.230469 226.183594 291.265625 C 226.183594 291.269531 226.183594 291.273438 226.183594 291.28125 L 226.578125 304.171875 C 226.609375 305.136719 225.851563 305.941406 224.886719 305.96875 C 224.863281 305.964844 224.84375 305.964844 224.828125 305.964844 Z "/>
<path style=" stroke:none;fill-rule:nonzero;fill:#472B29;fill-opacity:1;" d="M 244.851563 305.964844 C 243.910156 305.964844 243.128906 305.214844 243.101563 304.269531 L 242.695313 291.144531 C 242.695313 291.113281 242.695313 291.085938 242.695313 291.050781 L 242.679688 290.546875 L 242.703125 290.546875 C 242.714844 290.398438 242.734375 290.238281 242.769531 290.085938 C 242.59375 287.851563 242.480469 284.148438 242.296875 278.039063 C 242.265625 277.074219 243.023438 276.269531 243.988281 276.238281 C 244.953125 276.101563 245.765625 276.96875 245.789063 277.933594 L 246.195313 291.046875 C 246.195313 291.074219 246.195313 291.109375 246.195313 291.144531 L 246.210938 291.660156 L 246.179688 291.660156 C 246.171875 291.804688 246.148438 291.960938 246.113281 292.113281 C 246.296875 294.351563 246.40625 298.050781 246.59375 304.171875 C 246.625 305.136719 245.863281 305.941406 244.898438 305.96875 C 244.886719 305.964844 244.863281 305.964844 244.851563 305.964844 Z "/>
<path style=" stroke:none;fill-rule:nonzero;fill:#FDFCEF;fill-opacity:1;" d="M 217.53125 370.164063 C 226.945313 370.164063 235.113281 370.164063 235.230469 370.164063 C 245.78125 370.164063 254.335938 361.796875 254.335938 351.46875 C 254.335938 342.460938 247.824219 334.945313 239.160156 333.171875 C 239.261719 332.378906 239.328125 331.585938 239.328125 330.769531 C 239.328125 320.074219 230.46875 311.40625 219.546875 311.40625 C 213.09375 311.40625 207.378906 314.441406 203.769531 319.121094 C 202.84375 307.214844 191.980469 298.03125 179.269531 299.554688 C 169.976563 300.671875 162.285156 307.699219 160.574219 316.710938 C 160.023438 319.601563 160.085938 322.40625 160.628906 325.035156 C 158.140625 322.410156 154.589844 320.753906 150.640625 320.753906 C 143.410156 320.753906 137.503906 326.265625 137.039063 333.226563 C 133.753906 332.515625 130.183594 332.558594 126.425781 333.941406 C 119.234375 336.578125 114.113281 343.203125 113.816406 350.71875 C 113.390625 361.386719 122.101563 370.164063 132.90625 370.164063 C 133.726563 370.164063 136.609375 370.164063 137.273438 370.164063 L 176.945313 370.164063 M 185.140625 370.164063 L 186.941406 370.164063 "/>
<path style=" stroke:none;fill-rule:nonzero;fill:#472B29;fill-opacity:1;" d="M 235.230469 372.664063 L 217.523438 372.664063 C 216.144531 372.664063 215.023438 371.546875 215.023438 370.164063 C 215.023438 368.785156 216.144531 367.664063 217.523438 367.664063 L 235.230469 367.664063 C 244.386719 367.664063 251.828125 360.398438 251.828125 351.46875 C 251.828125 343.851563 246.289063 337.183594 238.648438 335.621094 C 237.371094 335.359375 236.503906 334.15625 236.671875 332.855469 C 236.761719 332.171875 236.820313 331.476563 236.820313 330.769531 C 236.820313 321.46875 229.066406 313.90625 219.535156 313.90625 C 214.074219 313.90625 209.046875 316.359375 205.738281 320.644531 C 205.105469 321.464844 204.03125 321.808594 203.046875 321.511719 C 202.054688 321.214844 201.351563 320.339844 201.269531 319.308594 C 200.875 314.214844 198.445313 309.589844 194.421875 306.289063 C 190.28125 302.890625 185.003906 301.386719 179.554688 302.03125 C 171.324219 303.015625 164.523438 309.238281 163.019531 317.171875 C 162.550781 319.640625 162.566406 322.109375 163.070313 324.523438 C 163.296875 325.621094 162.769531 326.730469 161.78125 327.246094 C 160.796875 327.761719 159.578125 327.566406 158.804688 326.75 C 156.664063 324.488281 153.761719 323.25 150.625 323.25 C 144.78125 323.25 139.898438 327.703125 139.519531 333.386719 C 139.46875 334.109375 139.109375 334.78125 138.53125 335.214844 C 137.949219 335.648438 137.214844 335.816406 136.496094 335.660156 C 133.304688 334.964844 130.285156 335.175781 127.269531 336.28125 C 120.960938 338.601563 116.550781 344.441406 116.296875 350.808594 C 116.121094 355.183594 117.710938 359.351563 120.769531 362.535156 C 123.945313 365.839844 128.25 367.65625 132.886719 367.65625 L 176.925781 367.65625 C 178.304688 367.65625 179.425781 368.773438 179.425781 370.15625 C 179.425781 371.535156 178.304688 372.65625 176.925781 372.65625 L 132.886719 372.65625 C 126.960938 372.65625 121.230469 370.230469 117.160156 365.996094 C 113.148438 361.820313 111.066406 356.355469 111.296875 350.605469 C 111.628906 342.234375 117.355469 334.589844 125.546875 331.578125 C 128.59375 330.460938 131.753906 330.050781 134.945313 330.355469 C 136.664063 323.378906 143.089844 318.234375 150.621094 318.234375 C 153.085938 318.234375 155.503906 318.800781 157.691406 319.851563 C 157.734375 318.640625 157.875 317.429688 158.105469 316.21875 C 160.011719 306.175781 168.585938 298.289063 178.953125 297.050781 C 185.753906 296.246094 192.378906 298.140625 197.585938 302.410156 C 201.324219 305.476563 203.976563 309.453125 205.316406 313.921875 C 209.269531 310.679688 214.238281 308.886719 219.523438 308.886719 C 231.816406 308.886719 241.808594 318.695313 241.808594 330.75 C 241.808594 330.921875 241.808594 331.089844 241.804688 331.261719 C 250.625 334.035156 256.820313 342.199219 256.820313 351.449219 C 256.835938 363.15625 247.144531 372.664063 235.230469 372.664063 Z M 186.941406 372.664063 L 185.140625 372.664063 C 183.761719 372.664063 182.640625 371.546875 182.640625 370.164063 C 182.640625 368.785156 183.761719 367.664063 185.140625 367.664063 L 186.941406 367.664063 C 188.320313 367.664063 189.441406 368.785156 189.441406 370.164063 C 189.441406 371.546875 188.320313 372.664063 186.941406 372.664063 Z "/>
<path style=" stroke:none;fill-rule:nonzero;fill:#472B29;fill-opacity:1;" d="M 226.691406 343.648438 C 226.601563 343.648438 226.503906 343.640625 226.414063 343.621094 C 225.738281 343.46875 225.320313 342.800781 225.476563 342.125 C 225.664063 341.289063 225.949219 340.484375 226.320313 339.730469 C 229.34375 333.609375 237.679688 331.351563 244.929688 334.699219 C 245.554688 334.988281 245.828125 335.734375 245.539063 336.359375 C 245.246094 336.984375 244.511719 337.261719 243.878906 336.96875 C 237.851563 334.179688 230.988281 335.925781 228.566406 340.839844 C 228.273438 341.421875 228.058594 342.039063 227.914063 342.679688 C 227.78125 343.253906 227.265625 343.648438 226.691406 343.648438 Z "/>
<path style=" stroke:none;fill-rule:nonzero;fill:#472B29;fill-opacity:1;" d="M 200.898438 372.664063 L 195.363281 372.664063 C 193.984375 372.664063 192.863281 371.546875 192.863281 370.164063 C 192.863281 368.785156 193.984375 367.664063 195.363281 367.664063 L 200.898438 367.664063 C 202.28125 367.664063 203.398438 368.785156 203.398438 370.164063 C 203.398438 371.546875 202.28125 372.664063 200.898438 372.664063 Z "/>
</g>
</svg>
