<?xml version="1.0" encoding="UTF-8"?>
<svg xmlns="http://www.w3.org/2000/svg" xmlns:xlink="http://www.w3.org/1999/xlink" width="500pt" height="500pt" viewBox="0 0 500 500" version="1.1">
<g id="surface1">
<path style=" stroke:none;fill-rule:nonzero;fill:#EE3E54;fill-opacity:1;" d="M 75 145 C 75 150.523438 70.523438 155 65 155 C 59.476563 155 55 150.523438 55 145 C 55 139.476563 59.476563 135 65 135 C 70.523438 135 75 139.476563 75 145 Z "/>
<path style=" stroke:none;fill-rule:nonzero;fill:#F1BC19;fill-opacity:1;" d="M 390 65 C 390 67.761719 387.761719 70 385 70 C 382.238281 70 380 67.761719 380 65 C 380 62.238281 382.238281 60 385 60 C 387.761719 60 390 62.238281 390 65 Z "/>
<path style=" stroke:none;fill-rule:nonzero;fill:#FCE0A2;fill-opacity:1;" d="M 435 250 C 435 352.171875 352.171875 435 250 435 C 147.828125 435 65 352.171875 65 250 C 65 147.828125 147.828125 65 250 65 C 352.171875 65 435 147.828125 435 250 Z "/>
<path style=" stroke:none;fill-rule:nonzero;fill:#F1BC19;fill-opacity:1;" d="M 435 75 C 435 86.046875 426.046875 95 415 95 C 403.953125 95 395 86.046875 395 75 C 395 63.953125 403.953125 55 415 55 C 426.046875 55 435 63.953125 435 75 Z "/>
<path style=" stroke:none;fill-rule:nonzero;fill:#EE3E54;fill-opacity:1;" d="M 445 120 C 445 125.523438 440.523438 130 435 130 C 429.476563 130 425 125.523438 425 120 C 425 114.476563 429.476563 110 435 110 C 440.523438 110 445 114.476563 445 120 Z "/>
<path style=" stroke:none;fill-rule:nonzero;fill:#FBCD59;fill-opacity:1;" d="M 415 380 C 415 385.523438 410.523438 390 405 390 C 399.476563 390 395 385.523438 395 380 C 395 374.476563 399.476563 370 405 370 C 410.523438 370 415 374.476563 415 380 Z "/>
<path style=" stroke:none;fill-rule:nonzero;fill:#FBCD59;fill-opacity:1;" d="M 95 315 C 95 326.046875 86.046875 335 75 335 C 63.953125 335 55 326.046875 55 315 C 55 303.953125 63.953125 295 75 295 C 86.046875 295 95 303.953125 95 315 Z "/>
<path style=" stroke:none;fill-rule:nonzero;fill:#EE3E54;fill-opacity:1;" d="M 135 435 C 135 440.523438 130.523438 445 125 445 C 119.476563 445 115 440.523438 115 435 C 115 429.476563 119.476563 425 125 425 C 130.523438 425 135 429.476563 135 435 Z "/>
<path style=" stroke:none;fill-rule:nonzero;fill:#FFFFFF;fill-opacity:1;" d="M 105 267.5 C 105 274.402344 99.402344 280 92.5 280 C 85.597656 280 80 274.402344 80 267.5 C 80 260.597656 85.597656 255 92.5 255 C 99.402344 255 105 260.597656 105 267.5 Z "/>
<path style=" stroke:none;fill-rule:nonzero;fill:#F1BC19;fill-opacity:1;" d="M 110 335 C 110 337.761719 107.761719 340 105 340 C 102.238281 340 100 337.761719 100 335 C 100 332.238281 102.238281 330 105 330 C 107.761719 330 110 332.238281 110 335 Z "/>
<path style=" stroke:none;fill-rule:nonzero;fill:#FFFFFF;fill-opacity:1;" d="M 405 170 C 405 172.761719 402.761719 175 400 175 C 397.238281 175 395 172.761719 395 170 C 395 167.238281 397.238281 165 400 165 C 402.761719 165 405 167.238281 405 170 Z "/>
<path style=" stroke:none;fill-rule:nonzero;fill:#78A2D2;fill-opacity:1;" d="M 262.496094 344.714844 C 258.386719 345.246094 254.179688 345.515625 250 345.515625 C 222.699219 345.515625 197.136719 334.09375 178.964844 314.410156 L 191.25 314.410156 C 196.976563 314.410156 201.621094 309.769531 201.621094 304.039063 C 201.621094 298.316406 196.980469 293.671875 191.25 293.671875 L 153.234375 293.671875 C 147.511719 293.671875 142.863281 298.308594 142.863281 304.039063 L 142.863281 342.054688 C 142.863281 347.78125 147.503906 352.425781 153.234375 352.425781 C 158.964844 352.425781 163.605469 347.785156 163.605469 342.054688 L 163.605469 328.320313 C 185.675781 352.320313 216.78125 366.246094 250 366.246094 C 255.066406 366.246094 260.164063 365.914063 265.148438 365.273438 C 270.828125 364.539063 274.839844 359.34375 274.109375 353.664063 C 273.375 347.996094 268.164063 344 262.496094 344.714844 Z "/>
<path style=" stroke:none;fill-rule:nonzero;fill:#472B29;fill-opacity:1;" d="M 250 369.75 C 219.171875 369.75 189.421875 357.851563 167.105469 336.839844 L 167.105469 342.058594 C 167.105469 349.703125 160.878906 355.925781 153.234375 355.925781 C 145.589844 355.925781 139.371094 349.703125 139.371094 342.058594 L 139.371094 304.039063 C 139.371094 296.394531 145.589844 290.175781 153.234375 290.175781 L 191.25 290.175781 C 198.894531 290.175781 205.121094 296.394531 205.121094 304.039063 C 205.121094 311.683594 198.894531 317.910156 191.25 317.910156 L 187.476563 317.910156 C 204.515625 333.308594 226.871094 342.003906 250 342.003906 C 254.023438 342.003906 258.078125 341.746094 262.054688 341.238281 L 262.058594 341.238281 C 269.621094 340.289063 276.605469 345.648438 277.578125 353.21875 C 278.054688 356.894531 277.066406 360.535156 274.804688 363.46875 C 272.539063 366.40625 269.269531 368.28125 265.59375 368.753906 C 260.445313 369.414063 255.199219 369.75 250 369.75 Z M 160.105469 319.34375 L 166.179688 325.953125 C 187.679688 349.339844 218.234375 362.746094 250 362.746094 C 254.898438 362.746094 259.851563 362.429688 264.703125 361.804688 C 266.519531 361.570313 268.140625 360.644531 269.261719 359.191406 C 270.378906 357.738281 270.871094 355.933594 270.636719 354.113281 C 270.15625 350.363281 266.675781 347.730469 262.933594 348.179688 C 258.671875 348.726563 254.320313 349.003906 250 349.003906 C 222.128906 349.003906 195.300781 337.253906 176.394531 316.78125 L 170.96875 310.90625 L 191.25 310.90625 C 195.035156 310.90625 198.121094 307.824219 198.121094 304.035156 C 198.121094 300.25 195.039063 297.171875 191.25 297.171875 L 153.234375 297.171875 C 149.449219 297.171875 146.371094 300.25 146.371094 304.035156 L 146.371094 342.054688 C 146.371094 345.839844 149.449219 348.921875 153.234375 348.921875 C 157.019531 348.921875 160.105469 345.839844 160.105469 342.054688 Z "/>
<path style=" stroke:none;fill-rule:nonzero;fill:#78A2D2;fill-opacity:1;" d="M 234.386719 153.234375 C 239.5 152.40625 244.753906 151.984375 250 151.984375 C 277.324219 151.984375 302.878906 163.394531 321.046875 183.089844 L 308.75 183.089844 C 303.023438 183.089844 298.378906 187.730469 298.378906 193.460938 C 298.378906 199.183594 303.019531 203.828125 308.75 203.828125 L 346.765625 203.828125 C 352.488281 203.828125 357.136719 199.191406 357.136719 193.460938 L 357.136719 155.445313 C 357.136719 149.71875 352.496094 145.074219 346.765625 145.074219 C 341.035156 145.074219 336.394531 149.714844 336.394531 155.445313 L 336.394531 169.164063 C 314.335938 145.164063 283.253906 131.25 250 131.25 C 243.640625 131.25 237.265625 131.761719 231.058594 132.769531 C 225.40625 133.691406 221.574219 139.015625 222.496094 144.664063 C 223.410156 150.316406 228.734375 154.148438 234.386719 153.234375 Z "/>
<path style=" stroke:none;fill-rule:nonzero;fill:#472B29;fill-opacity:1;" d="M 346.765625 207.324219 L 308.75 207.324219 C 301.105469 207.324219 294.878906 201.105469 294.878906 193.460938 C 294.878906 185.816406 301.105469 179.589844 308.75 179.589844 L 312.535156 179.589844 C 295.503906 164.191406 273.144531 155.496094 250 155.496094 C 244.933594 155.496094 239.871094 155.898438 234.945313 156.699219 C 227.40625 157.898438 220.265625 152.785156 219.039063 145.234375 C 217.816406 137.691406 222.953125 130.550781 230.5 129.320313 C 236.898438 128.273438 243.460938 127.75 250 127.75 C 280.839844 127.75 310.589844 139.644531 332.894531 160.644531 L 332.894531 155.441406 C 332.894531 147.796875 339.121094 141.574219 346.765625 141.574219 C 354.410156 141.574219 360.628906 147.796875 360.628906 155.441406 L 360.628906 193.460938 C 360.628906 201.105469 354.410156 207.324219 346.765625 207.324219 Z M 308.75 186.585938 C 304.964844 186.585938 301.878906 189.664063 301.878906 193.453125 C 301.878906 197.238281 304.960938 200.320313 308.75 200.320313 L 346.765625 200.320313 C 350.550781 200.320313 353.628906 197.238281 353.628906 193.453125 L 353.628906 155.433594 C 353.628906 151.648438 350.550781 148.570313 346.765625 148.570313 C 342.980469 148.570313 339.894531 151.648438 339.894531 155.433594 L 339.894531 178.136719 L 333.820313 171.523438 C 312.328125 148.15625 281.78125 134.75 250 134.75 C 243.839844 134.75 237.648438 135.246094 231.613281 136.226563 C 227.886719 136.828125 225.339844 140.371094 225.945313 144.105469 C 226.554688 147.835938 230.078125 150.414063 233.824219 149.78125 C 239.121094 148.921875 244.558594 148.484375 250 148.484375 C 277.890625 148.484375 304.71875 160.234375 323.613281 180.710938 L 329.03125 186.585938 Z "/>
<path style=" stroke:none;fill-rule:nonzero;fill:#78A2D2;fill-opacity:1;" d="M 145.945313 276.261719 C 151.59375 275.324219 155.421875 269.996094 154.488281 264.34375 C 154.394531 263.765625 154.304688 263.179688 154.21875 262.59375 C 153.570313 258.035156 153.238281 253.375 153.238281 248.75 C 153.238281 244.125 153.570313 239.46875 154.21875 234.914063 C 157.378906 212.828125 168.125 192.679688 184.34375 177.695313 L 184.34375 190 C 184.34375 195.726563 188.984375 200.371094 194.714844 200.371094 C 200.441406 200.371094 205.085938 195.730469 205.085938 190 L 205.085938 151.984375 C 205.085938 146.261719 200.445313 141.613281 194.714844 141.613281 L 156.699219 141.613281 C 150.976563 141.613281 146.328125 146.253906 146.328125 151.984375 C 146.328125 157.714844 150.96875 162.355469 156.699219 162.355469 L 170.390625 162.355469 C 150.628906 180.566406 137.539063 205.085938 133.691406 231.984375 C 132.894531 237.511719 132.5 243.148438 132.5 248.75 C 132.5 254.351563 132.894531 259.988281 133.691406 265.519531 C 133.796875 266.253906 133.90625 266.988281 134.03125 267.71875 C 134.863281 272.796875 139.261719 276.398438 144.238281 276.398438 C 144.804688 276.394531 145.375 276.351563 145.945313 276.261719 Z "/>
<path style=" stroke:none;fill-rule:nonzero;fill:#472B29;fill-opacity:1;" d="M 144.238281 279.894531 C 137.429688 279.894531 131.679688 275.011719 130.574219 268.285156 C 130.449219 267.550781 130.328125 266.773438 130.226563 266.003906 C 129.414063 260.335938 129 254.523438 129 248.75 C 129 242.980469 129.414063 237.171875 130.226563 231.488281 C 133.734375 206.933594 144.878906 183.925781 161.878906 165.855469 L 156.695313 165.855469 C 149.050781 165.855469 142.824219 159.636719 142.824219 151.988281 C 142.824219 144.34375 149.050781 138.121094 156.695313 138.121094 L 194.710938 138.121094 C 202.355469 138.121094 208.574219 144.34375 208.574219 151.988281 L 208.574219 190 C 208.574219 197.644531 202.355469 203.863281 194.710938 203.863281 C 187.066406 203.863281 180.835938 197.644531 180.835938 190 L 180.835938 186.199219 C 168.429688 199.921875 160.296875 217.109375 157.675781 235.40625 C 157.050781 239.816406 156.734375 244.304688 156.734375 248.75 C 156.734375 253.199219 157.050781 257.691406 157.679688 262.101563 L 157.941406 263.769531 C 159.179688 271.320313 154.054688 278.464844 146.511719 279.710938 L 146.503906 279.710938 C 145.75 279.839844 144.988281 279.894531 144.238281 279.894531 Z M 156.691406 145.113281 C 152.90625 145.113281 149.820313 148.195313 149.820313 151.984375 C 149.820313 155.769531 152.898438 158.851563 156.691406 158.851563 L 179.34375 158.851563 L 172.753906 164.925781 C 153.484375 182.679688 140.84375 206.671875 137.148438 232.476563 C 136.386719 237.828125 136 243.304688 136 248.75 C 136 254.195313 136.390625 259.675781 137.148438 265.03125 C 137.25 265.746094 137.359375 266.433594 137.476563 267.128906 C 138.089844 270.855469 141.59375 273.429688 145.371094 272.808594 C 149.105469 272.191406 151.644531 268.648438 151.03125 264.910156 L 150.75 263.089844 C 150.074219 258.355469 149.730469 253.53125 149.730469 248.753906 C 149.730469 243.984375 150.070313 239.160156 150.746094 234.425781 C 153.980469 211.789063 165.070313 190.734375 181.960938 175.128906 L 187.835938 169.703125 L 187.835938 190 C 187.835938 193.785156 190.914063 196.863281 194.703125 196.863281 C 198.496094 196.863281 201.570313 193.785156 201.570313 190 L 201.570313 151.984375 C 201.570313 148.195313 198.488281 145.113281 194.703125 145.113281 Z "/>
<path style=" stroke:none;fill-rule:nonzero;fill:#78A2D2;fill-opacity:1;" d="M 339.855469 338.605469 L 325.683594 338.605469 C 352.121094 316.449219 367.5 284.003906 367.5 248.75 C 367.5 242.390625 366.988281 236.015625 365.980469 229.808594 C 365.058594 224.15625 359.71875 220.320313 354.085938 221.246094 C 348.429688 222.164063 344.601563 227.488281 345.519531 233.140625 C 346.34375 238.25 346.769531 243.503906 346.769531 248.753906 C 346.769531 277.839844 334.054688 304.605469 312.210938 322.859375 L 312.210938 310.960938 C 312.210938 305.234375 307.570313 300.589844 301.839844 300.589844 C 296.113281 300.589844 291.46875 305.230469 291.46875 310.960938 L 291.46875 348.976563 C 291.46875 354.699219 296.109375 359.34375 301.839844 359.34375 L 339.855469 359.34375 C 345.578125 359.34375 350.226563 354.703125 350.226563 348.976563 C 350.21875 343.246094 345.578125 338.605469 339.855469 338.605469 Z "/>
<path style=" stroke:none;fill-rule:nonzero;fill:#472B29;fill-opacity:1;" d="M 339.855469 362.835938 L 301.839844 362.835938 C 294.195313 362.835938 287.96875 356.613281 287.96875 348.96875 L 287.96875 310.953125 C 287.96875 303.308594 294.195313 297.085938 301.839844 297.085938 C 309.484375 297.085938 315.710938 303.308594 315.710938 310.953125 L 315.710938 314.949219 C 333.308594 297.554688 343.265625 273.835938 343.265625 248.75 C 343.265625 243.699219 342.859375 238.640625 342.066406 233.691406 C 341.46875 230.046875 342.335938 226.371094 344.496094 223.371094 C 346.660156 220.359375 349.863281 218.378906 353.523438 217.785156 C 357.171875 217.203125 360.828125 218.054688 363.84375 220.214844 C 366.859375 222.386719 368.84375 225.589844 369.433594 229.25 C 370.476563 235.644531 371 242.210938 371 248.75 C 371 281.519531 357.894531 312.5 334.761719 335.105469 L 339.855469 335.105469 C 347.5 335.105469 353.71875 341.324219 353.71875 348.96875 C 353.71875 356.613281 347.5 362.835938 339.855469 362.835938 Z M 301.839844 304.085938 C 298.054688 304.085938 294.96875 307.164063 294.96875 310.953125 L 294.96875 348.96875 C 294.96875 352.753906 298.050781 355.835938 301.839844 355.835938 L 339.855469 355.835938 C 343.640625 355.835938 346.71875 352.753906 346.71875 348.96875 C 346.71875 345.183594 343.640625 342.105469 339.855469 342.105469 L 316.058594 342.105469 L 323.433594 335.925781 C 349.214844 314.308594 364 282.539063 364 248.75 C 364 242.585938 363.503906 236.394531 362.523438 230.371094 C 362.230469 228.558594 361.25 226.96875 359.753906 225.894531 C 358.269531 224.824219 356.460938 224.40625 354.648438 224.691406 C 352.835938 224.988281 351.246094 225.96875 350.175781 227.453125 C 349.105469 228.945313 348.675781 230.761719 348.96875 232.570313 C 349.828125 237.886719 350.265625 243.324219 350.265625 248.746094 C 350.265625 278.523438 337.210938 306.515625 314.449219 325.535156 L 308.703125 330.335938 L 308.703125 310.949219 C 308.703125 307.171875 305.625 304.085938 301.839844 304.085938 Z "/>
<path style=" stroke:none;fill-rule:nonzero;fill:#472B29;fill-opacity:1;" d="M 178.671875 209.945313 C 178.460938 209.945313 178.253906 209.894531 178.058594 209.785156 C 177.453125 209.449219 177.238281 208.683594 177.578125 208.085938 C 178.496094 206.453125 179.460938 204.859375 180.476563 203.300781 C 180.855469 202.726563 181.628906 202.570313 182.203125 202.933594 C 182.785156 203.316406 182.945313 204.085938 182.570313 204.671875 C 181.585938 206.183594 180.644531 207.726563 179.761719 209.308594 C 179.535156 209.714844 179.109375 209.945313 178.671875 209.945313 Z "/>
<path style=" stroke:none;fill-rule:nonzero;fill:#472B29;fill-opacity:1;" d="M 168.191406 250.195313 C 167.5 250.195313 166.941406 249.636719 166.941406 248.945313 C 166.941406 238.355469 168.894531 228.035156 172.746094 218.269531 C 172.996094 217.621094 173.730469 217.324219 174.363281 217.566406 C 175.003906 217.820313 175.320313 218.539063 175.070313 219.183594 C 171.335938 228.660156 169.445313 238.664063 169.445313 248.941406 C 169.441406 249.636719 168.878906 250.195313 168.191406 250.195313 Z "/>
<path style=" stroke:none;fill-rule:nonzero;fill:#472B29;fill-opacity:1;" d="M 214.363281 324.226563 C 214.179688 324.226563 213.996094 324.183594 213.816406 324.101563 C 211.648438 323.039063 209.480469 321.859375 207.375 320.585938 C 206.785156 320.230469 206.59375 319.453125 206.953125 318.863281 C 207.316406 318.28125 208.085938 318.101563 208.671875 318.445313 C 210.714844 319.679688 212.816406 320.828125 214.914063 321.855469 C 215.535156 322.160156 215.789063 322.90625 215.488281 323.523438 C 215.269531 323.964844 214.824219 324.226563 214.363281 324.226563 Z "/>
<path style=" stroke:none;fill-rule:nonzero;fill:#472B29;fill-opacity:1;" d="M 250.589844 332.59375 C 242.28125 332.59375 234.078125 331.386719 226.214844 328.988281 C 225.554688 328.789063 225.179688 328.089844 225.378906 327.429688 C 225.585938 326.769531 226.269531 326.398438 226.941406 326.59375 C 234.570313 328.914063 242.53125 330.089844 250.589844 330.089844 C 251.28125 330.089844 251.839844 330.648438 251.839844 331.339844 C 251.839844 332.03125 251.28125 332.59375 250.589844 332.59375 Z "/>
<path style=" stroke:none;fill-rule:nonzero;fill:#472B29;fill-opacity:1;" d="M 318.828125 296.386719 C 318.589844 296.386719 318.34375 296.316406 318.128906 296.171875 C 317.558594 295.785156 317.410156 295.003906 317.796875 294.429688 C 323.945313 285.363281 328.125 275.335938 330.226563 264.613281 C 330.355469 263.933594 331.03125 263.480469 331.691406 263.628906 C 332.371094 263.761719 332.808594 264.414063 332.675781 265.09375 C 330.515625 276.144531 326.203125 286.484375 319.863281 295.835938 C 319.625 296.195313 319.230469 296.386719 318.828125 296.386719 Z "/>
<path style=" stroke:none;fill-rule:nonzero;fill:#472B29;fill-opacity:1;" d="M 332.585938 258.414063 C 332.546875 258.414063 332.5 258.414063 332.460938 258.410156 C 331.773438 258.339844 331.273438 257.726563 331.339844 257.046875 C 331.605469 254.378906 331.738281 251.660156 331.738281 248.949219 C 331.738281 248.261719 332.300781 247.699219 332.988281 247.699219 C 333.679688 247.699219 334.238281 248.261719 334.238281 248.949219 C 334.238281 251.738281 334.101563 254.546875 333.824219 257.289063 C 333.761719 257.929688 333.21875 258.414063 332.585938 258.414063 Z "/>
<path style=" stroke:none;fill-rule:nonzero;fill:#472B29;fill-opacity:1;" d="M 289.863281 177.746094 C 289.660156 177.746094 289.453125 177.695313 289.269531 177.59375 C 277.476563 171.191406 264.101563 167.800781 250.589844 167.800781 C 247.796875 167.800781 245.003906 167.941406 242.289063 168.21875 C 241.609375 168.304688 240.988281 167.789063 240.921875 167.101563 C 240.851563 166.410156 241.351563 165.800781 242.035156 165.730469 C 244.835938 165.445313 247.710938 165.300781 250.585938 165.300781 C 264.511719 165.300781 278.296875 168.789063 290.453125 175.398438 C 291.066406 175.730469 291.289063 176.488281 290.960938 177.09375 C 290.734375 177.511719 290.304688 177.746094 289.863281 177.746094 Z "/>
</g>
</svg>
